<?xml version="1.0" standalone="no"?>
<!DOCTYPE svg PUBLIC "-//W3C//DTD SVG 20010904//EN"
 "http://www.w3.org/TR/2001/REC-SVG-20010904/DTD/svg10.dtd">
<svg version="1.0" xmlns="http://www.w3.org/2000/svg"
 width="300.000000pt" height="300.000000pt" viewBox="0 0 300.000000 300.000000"
 preserveAspectRatio="xMidYMid meet">
<metadata>
Created by potrace 1.14, written by Peter Selinger 2001-2017
</metadata>
<g transform="translate(0.000000,300.000000) scale(0.100000,-0.100000)"
fill="#000000" stroke="none">
<path d="M0 2942 c0 -36 6 -66 16 -80 8 -12 11 -22 6 -22 -18 0 0 -48 20 -53
17 -5 18 -8 6 -26 -13 -21 -13 -21 -22 -1 -14 31 -21 24 -23 -23 -1 -36 1 -43
17 -43 15 0 17 4 8 19 -8 16 -7 17 9 9 10 -5 24 -7 30 -5 7 3 17 -7 23 -22 14
-37 13 -37 -18 -30 -22 4 -29 2 -29 -10 0 -9 6 -14 14 -11 7 3 17 -3 23 -13
11 -22 -1 -23 -38 -3 -12 7 -27 10 -33 7 -14 -9 -8 -118 8 -130 14 -11 6 -58
-9 -49 -5 4 -8 -30 -7 -85 2 -49 6 -88 11 -85 4 3 8 -2 8 -10 0 -9 5 -16 10
-16 6 0 10 -4 10 -10 0 -5 -9 -10 -20 -10 -11 0 -20 -7 -20 -16 0 -11 6 -14
23 -10 l22 6 -22 -11 c-18 -9 -21 -20 -21 -63 1 -43 4 -52 19 -53 12 -1 16 3
12 13 -3 8 0 14 6 14 7 0 14 -7 17 -15 4 -8 10 -15 15 -15 4 0 6 7 3 15 -4 8
-1 15 5 15 14 0 14 -37 0 -45 -5 -4 -24 -9 -41 -12 -22 -3 -28 -1 -23 8 5 7 4
10 -3 5 -16 -9 -16 -574 -1 -592 8 -9 8 -14 1 -14 -6 0 -10 -20 -10 -45 l0
-45 111 0 c62 0 128 -4 147 -10 25 -7 36 -7 42 3 6 9 10 9 20 -1 18 -18 33
-15 17 4 -12 15 -11 16 11 9 31 -11 48 -11 80 -1 24 8 24 8 5 -8 -31 -24 -17
-20 106 30 278 113 444 167 506 165 27 -1 103 32 103 45 0 8 -55 -9 -78 -24
-12 -8 -25 -12 -28 -9 -6 6 70 58 200 137 49 30 83 56 77 58 -21 7 -11 22 14
22 15 0 28 7 32 18 8 21 23 32 43 32 13 0 13 -1 0 -10 -8 -5 -10 -10 -4 -10 6
0 17 7 25 16 10 13 10 17 -1 24 -7 4 -10 15 -7 23 3 9 0 14 -8 13 -8 0 -15 4
-17 9 -4 13 141 15 148 3 4 -5 14 -2 25 8 10 9 25 14 34 11 8 -4 15 -2 15 3 0
5 7 7 15 4 22 -9 18 -24 -5 -24 -11 0 -20 -4 -20 -9 0 -14 -29 -41 -43 -41 -7
0 -6 4 3 10 18 11 18 11 -73 14 -48 1 -55 -1 -41 -11 15 -11 15 -15 3 -30 -11
-15 -11 -16 1 -5 8 6 22 12 32 12 10 0 18 6 18 13 1 7 6 5 14 -5 15 -20 31
-24 20 -5 -5 8 -2 7 7 -2 12 -11 11 -15 -4 -25 -10 -6 -31 -22 -45 -34 l-27
-24 25 7 c14 4 32 13 40 20 12 11 69 20 148 24 7 1 11 5 7 10 -5 9 27 22 88
35 26 6 28 9 21 39 -3 17 -10 38 -14 47 -5 8 -16 55 -26 103 -12 65 -22 90
-36 98 -38 20 -103 35 -128 29 -27 -7 -83 7 -75 20 2 4 -11 6 -30 4 -19 -1
-35 1 -35 6 0 5 -16 14 -35 21 -19 7 -35 16 -35 20 0 23 -142 40 -155 19 -9
-15 -44 -12 -62 6 -10 10 -24 13 -37 9 -98 -30 -141 -25 -152 20 -7 29 -12 30
-34 10 -16 -14 -18 -14 -23 5 -4 17 -1 20 16 18 17 -2 22 2 23 22 3 60 5 70
13 70 6 0 11 -16 13 -36 l3 -35 22 20 c16 15 35 21 69 21 36 0 45 3 41 14 -4
10 -1 13 9 9 7 -3 14 -9 14 -13 0 -5 29 -10 65 -12 36 -1 65 1 65 6 0 4 7 6
15 2 8 -3 15 -1 15 4 0 6 -3 10 -8 10 -4 0 -7 36 -7 80 0 63 3 79 13 75 8 -3
18 -5 23 -5 5 0 9 -7 9 -15 0 -9 -6 -12 -15 -9 -11 5 -14 0 -13 -19 2 -23 6
-26 40 -24 21 1 38 5 38 9 0 4 10 8 23 7 l22 0 -22 -9 c-15 -6 -23 -18 -23
-33 0 -19 8 -27 38 -36 20 -7 42 -12 47 -10 6 1 22 -1 38 -5 31 -9 38 -31 7
-23 -11 3 -20 2 -20 -2 0 -4 56 -12 125 -18 115 -11 133 -15 208 -52 45 -22
105 -60 133 -85 48 -43 52 -49 69 -128 10 -46 21 -85 26 -88 4 -3 -2 -45 -14
-93 -16 -68 -25 -87 -38 -87 -22 0 -95 -71 -136 -131 -16 -24 -52 -86 -79
-137 -48 -91 -50 -93 -81 -90 -17 2 -29 0 -27 -4 3 -4 17 -8 32 -8 18 0 23 -3
14 -8 -14 -9 104 -27 308 -47 69 -7 73 -6 61 9 -8 9 -20 15 -28 12 -21 -8 -15
12 7 24 16 9 22 8 26 -5 5 -11 10 -13 19 -5 17 14 26 1 19 -26 -5 -20 -2 -24
19 -24 23 0 24 3 25 62 1 35 6 64 13 68 7 5 7 10 1 13 -12 8 -7 103 6 137 9
20 10 16 6 -25 -3 -28 -2 -45 3 -38 4 6 24 11 43 10 30 -2 35 1 34 21 0 12 3
22 8 22 9 0 11 -44 1 -53 -3 -4 -5 -41 -4 -82 2 -62 -2 -82 -20 -115 -14 -25
-28 -39 -37 -35 -7 3 -10 0 -6 -6 6 -11 55 -8 84 4 8 4 22 2 30 -3 13 -8 12
-11 -5 -24 -11 -8 -33 -25 -49 -40 l-30 -25 17 -54 c15 -47 24 -153 10 -119
-2 6 -10 12 -18 12 -7 0 -17 6 -23 13 -16 19 -59 19 -66 1 -5 -13 -1 -15 19
-11 19 3 33 -3 53 -22 15 -15 36 -32 46 -38 13 -7 17 -16 12 -29 -7 -18 -8
-18 -17 -1 -6 9 -19 17 -31 17 -26 0 -123 -84 -176 -152 -34 -45 -70 -71 -219
-159 -234 -140 -356 -199 -409 -199 -13 0 -87 14 -166 31 -79 18 -150 32 -158
31 -26 0 -378 102 -410 119 -8 4 -73 27 -145 50 -224 71 -519 184 -552 211 -9
7 -13 7 -13 -1 0 -6 7 -14 15 -17 8 -4 15 -10 15 -16 0 -5 -4 -7 -8 -4 -5 3
-6 -8 -4 -24 6 -39 33 -62 130 -110 82 -40 95 -53 67 -64 -9 -3 -15 -18 -15
-35 0 -16 -5 -33 -10 -36 -8 -5 -7 -12 2 -23 10 -14 10 -15 -2 -4 -18 15 -34
16 -24 0 5 -7 3 -8 -5 -4 -7 5 -26 2 -43 -5 -27 -11 -29 -14 -12 -20 18 -7 18
-8 -3 -15 -13 -3 -20 -10 -17 -15 3 -5 -2 -6 -11 -3 -13 5 -13 9 -3 22 7 8
-11 3 -42 -13 -30 -16 -49 -30 -43 -32 7 -3 20 3 29 11 19 20 25 20 18 2 -3
-7 -16 -19 -30 -26 -24 -13 -24 -15 -24 -158 0 -133 1 -144 18 -138 15 5 15 5
1 -6 -19 -16 -21 -48 -2 -41 7 3 10 9 7 14 -3 5 2 6 10 3 9 -4 16 -17 15 -33
0 -14 -3 -21 -5 -15 -3 7 -14 10 -24 7 -23 -6 -27 -23 -5 -23 8 0 15 -4 15
-10 0 -5 -6 -10 -14 -10 -10 0 -14 -20 -15 -85 -1 -78 0 -85 18 -85 13 0 18 6
16 18 -1 9 -8 16 -14 14 -6 -1 -11 2 -11 8 0 14 16 12 33 -4 10 -10 33 -14 71
-13 41 1 55 -1 52 -10 -4 -10 187 -13 894 -13 698 0 900 3 900 12 0 9 3 9 12
0 8 -8 56 -12 153 -12 90 0 135 4 125 10 -8 5 -11 12 -7 16 4 4 15 0 25 -9 17
-15 57 -17 375 -17 l357 0 0 156 c0 101 -3 153 -10 149 -5 -3 -10 -1 -10 4 0
6 -9 11 -20 11 -13 0 -20 7 -20 20 0 21 15 27 25 10 14 -22 35 -10 35 20 0 17
-5 30 -12 30 -10 0 -10 2 0 8 18 12 14 149 -5 156 -8 3 -11 2 -8 -3 3 -5 1
-12 -5 -16 -5 -3 -10 2 -10 12 0 14 -2 15 -9 4 -7 -11 -10 -9 -13 10 -3 21 -7
23 -49 21 -27 -2 -50 1 -54 8 -4 6 -15 8 -26 5 -15 -5 -19 -1 -19 14 0 12 -7
21 -15 21 -10 0 -14 -8 -11 -22 1 -13 -4 -28 -13 -35 -13 -10 -10 -12 23 -13
30 0 37 -3 32 -15 -3 -8 -1 -15 4 -15 21 0 8 -18 -17 -26 -40 -11 -42 -11 -50
-13 -5 -1 -1 -6 7 -11 13 -8 12 -10 -4 -10 -19 0 -19 0 0 -22 14 -17 15 -19 2
-10 -12 10 -22 11 -37 3 -25 -14 -98 -14 -106 -1 -3 6 0 10 8 10 8 0 20 7 27
15 10 12 8 16 -11 23 -16 6 -28 5 -37 -5 -15 -15 -32 -9 -32 13 0 13 -12 18
-33 15 -4 -1 -17 3 -27 9 -13 7 -20 7 -20 1 0 -7 -9 -6 -26 1 -21 10 -27 9
-34 -3 -8 -12 -16 -10 -54 11 -34 18 -42 27 -35 37 12 14 4 33 -16 33 -29 0
-20 28 24 70 146 142 149 144 187 142 29 -2 35 0 27 10 -15 21 -9 43 11 40 22
-4 114 17 121 27 2 4 -1 8 -8 8 -19 1 -69 12 -73 16 -2 2 20 27 50 56 l55 51
88 -6 c48 -4 97 -12 108 -19 11 -6 36 -15 55 -18 31 -6 33 -5 18 7 -10 7 -18
16 -18 20 0 11 28 6 33 -6 3 -7 6 52 6 132 0 83 -3 139 -8 132 -7 -11 -9 -11
-14 2 -4 10 -1 16 8 16 13 0 15 33 15 220 l0 220 -31 0 c-26 0 -30 -3 -24 -17
25 -63 27 -74 14 -91 -13 -15 -12 -16 4 -3 15 12 17 11 17 -11 0 -19 -5 -24
-27 -23 -25 0 -32 -8 -58 -62 -16 -35 -33 -63 -38 -63 -5 0 -3 8 4 18 13 15
12 16 -3 3 -10 -7 -15 -17 -13 -22 3 -4 -2 -12 -10 -17 -9 -4 -23 -35 -31 -68
-15 -59 -55 -166 -60 -161 -2 2 10 43 26 92 62 184 31 327 -107 492 -46 55
-90 86 -137 97 -26 6 -28 5 -17 -8 18 -21 8 -20 -31 4 -18 11 -49 20 -68 20
-63 0 -140 13 -134 21 3 5 14 9 24 9 10 0 20 5 22 11 3 8 9 7 19 -3 26 -27
109 -32 93 -6 -4 6 -1 14 7 18 18 11 20 40 5 56 -7 7 -28 14 -47 16 -36 3 -36
3 -22 77 4 25 3 32 -5 27 -8 -4 -12 0 -12 12 0 30 10 32 55 10 41 -20 43 -23
48 -75 3 -30 11 -61 18 -69 8 -10 8 -14 0 -14 -6 0 -11 -4 -11 -10 0 -5 7 -10
15 -10 8 0 15 -4 15 -10 0 -5 -9 -10 -20 -10 -11 0 -20 -4 -20 -10 0 -5 9 -10
20 -10 10 0 24 -8 29 -17 7 -12 10 -14 11 -4 0 10 8 12 30 8 23 -5 30 -3 30 9
0 8 -5 12 -10 9 -17 -11 -23 24 -9 57 7 17 15 26 17 20 5 -16 21 -15 55 3 15
8 25 10 22 6 -2 -5 1 -14 8 -20 19 -15 64 8 76 39 9 24 9 24 10 3 1 -28 26
-21 28 7 1 13 -6 22 -23 26 -24 6 -30 15 -17 27 3 4 15 0 25 -9 13 -13 21 -14
32 -5 7 6 20 9 29 5 8 -3 18 0 22 6 5 8 10 8 20 0 19 -16 37 -3 30 21 -5 14
-3 17 9 13 11 -4 16 -1 16 10 0 20 -10 20 -38 1 l-22 -16 18 31 c9 16 22 28
29 26 6 -3 14 0 17 7 3 8 5 8 5 -1 1 -19 43 -51 58 -45 7 3 13 13 12 22 0 10
-3 11 -6 4 -3 -8 -15 -1 -33 19 -18 19 -34 29 -44 25 -9 -4 -16 -2 -16 4 0 6
18 8 48 4 50 -6 38 4 -28 23 l-35 10 30 1 c24 1 31 6 31 21 0 23 -30 25 -141
11 -54 -7 -66 -5 -115 19 -91 45 -128 54 -148 37 -9 -8 -23 -12 -29 -10 -7 3
-13 -1 -13 -8 0 -8 -7 -6 -19 5 -19 17 -20 17 -18 -18 1 -20 6 -36 10 -36 5 0
5 -4 2 -10 -3 -5 -11 -10 -16 -10 -6 0 -8 4 -4 9 3 5 1 12 -5 16 -5 3 -10 -1
-10 -9 0 -23 -12 -20 -79 16 l-60 32 -54 -17 c-63 -20 -107 -51 -107 -75 0 -9
-5 -24 -11 -32 -7 -11 -8 -4 -3 25 8 51 20 64 88 98 31 16 56 32 56 36 0 4 36
13 80 20 44 8 77 17 74 22 -6 11 10 12 20 2 10 -10 86 -12 86 -2 0 4 -5 9 -11
11 -13 4 9 48 24 48 4 0 5 -5 1 -12 -5 -8 -2 -9 12 -3 10 4 34 7 52 6 18 -1
32 3 32 10 0 7 -9 9 -26 5 -19 -5 -25 -3 -21 6 2 7 11 12 19 10 9 -1 21 5 28
13 16 20 44 20 36 0 -7 -19 3 -47 14 -40 5 3 13 -2 18 -11 6 -12 19 -15 44
-11 20 2 42 8 48 12 10 6 11 1 6 -19 -4 -15 -2 -26 4 -26 5 0 10 4 10 8 0 4
16 6 35 4 19 -2 32 -8 29 -13 -8 -14 6 -11 22 5 10 11 11 15 1 19 -8 2 -7 9 6
21 23 24 21 36 -5 35 -13 0 -17 -3 -10 -6 18 -7 15 -21 -5 -26 -18 -4 -67 18
-91 41 -7 6 -18 12 -23 12 -12 0 -11 51 1 70 11 17 12 16 14 -22 1 -26 16 -53
16 -29 0 7 5 9 10 6 15 -9 12 13 -6 40 -13 20 -14 28 -4 40 7 9 10 19 6 23 -4
4 -13 -1 -20 -11 -16 -21 -30 -23 -23 -2 4 8 2 17 -3 20 -6 3 -1 16 10 27 11
12 20 27 20 33 0 8 10 10 27 7 23 -4 25 -3 12 10 -7 9 -19 13 -25 11 -9 -3
-12 15 -11 61 1 40 5 66 12 66 6 0 10 16 9 35 l-2 35 89 -6 c87 -6 89 -6 89
15 0 20 -4 22 -45 18 -46 -5 -63 4 -48 26 4 7 1 5 -7 -4 -17 -17 -85 -15 -74
2 3 5 10 6 16 3 6 -4 8 -3 5 3 -4 6 -204 10 -547 11 l-540 2 0 -26 c0 -15 -4
-23 -11 -19 -6 4 -8 13 -5 21 3 8 -1 14 -8 14 -9 0 -12 -7 -9 -20 5 -20 -7
-27 -21 -12 -4 4 -12 8 -17 8 -5 1 -13 2 -19 3 -5 0 -10 7 -10 14 0 8 -7 14
-15 14 -9 0 -15 -10 -15 -23 0 -13 -5 -26 -10 -29 -6 -3 -10 2 -10 12 0 29
-20 43 -61 43 -33 0 -36 -2 -31 -25 2 -15 0 -25 -7 -25 -10 0 -15 14 -12 33 1
5 -3 6 -9 2 -6 -4 -18 -1 -27 7 -12 9 -15 9 -9 1 4 -8 2 -13 -5 -13 -7 0 -9
-3 -5 -7 4 -4 15 -8 24 -8 9 0 17 -6 16 -12 -3 -39 -5 -44 -15 -38 -6 4 -8 14
-5 22 3 8 1 11 -4 8 -6 -3 -10 -13 -10 -21 0 -8 -7 -14 -15 -14 -11 0 -10 -5
6 -21 11 -11 24 -17 27 -13 4 3 1 9 -5 11 -14 5 -18 23 -5 23 19 -1 31 -18 25
-38 -3 -12 -9 -19 -14 -16 -5 3 -9 0 -9 -5 0 -6 5 -11 10 -11 6 0 10 -5 10
-11 0 -5 -5 -7 -12 -3 -8 5 -9 0 -6 -14 4 -15 2 -22 -8 -22 -10 0 -11 6 -4 25
7 20 5 27 -10 38 -11 8 -17 17 -12 22 4 4 -6 5 -21 3 -21 -4 -31 0 -39 16 -7
11 -11 24 -10 28 1 4 -5 5 -13 2 -8 -4 -15 -10 -15 -15 0 -5 -5 -9 -11 -9 -8
0 -8 4 -2 13 12 15 5 87 -9 87 -5 0 -6 -4 -3 -10 8 -13 -1 -13 -26 0 -22 12
-22 10 -10 -23 9 -22 7 -24 -16 -24 -15 0 -20 2 -13 7 9 6 9 9 0 15 -6 4 -9
13 -6 20 6 17 -75 19 -86 2 -6 -9 -8 -9 -8 1 0 7 -15 12 -40 12 -38 0 -40 -1
-29 -21 8 -15 8 -19 0 -15 -6 4 -11 2 -11 -3 0 -6 -5 -11 -12 -11 -9 0 -9 3
-1 11 6 6 9 18 6 25 -4 11 -8 11 -20 -1 -8 -8 -20 -15 -26 -14 -9 0 -8 2 1 6
28 11 7 18 -60 20 -56 1 -78 -2 -93 -15 -19 -16 -19 -16 -6 1 13 16 7 17 -93
17 -105 0 -107 0 -116 -26 -6 -14 -11 -42 -11 -62 -1 -36 -1 -37 -8 -7 -5 22
-12 29 -25 27 -17 -3 -17 -2 -2 19 31 45 12 49 -215 49 -187 0 -238 -6 -196
-24 9 -3 7 -9 -5 -19 -24 -19 -23 -26 2 -20 14 4 20 0 20 -11 0 -25 -54 -17
-58 8 -2 10 -15 30 -28 42 -20 21 -27 22 -51 13 -19 -7 -29 -7 -31 0 -2 6 -10
11 -18 11 -10 0 -14 -15 -14 -58z m443 28 c8 -11 17 -17 20 -13 4 3 7 2 7 -4
0 -17 -32 -25 -42 -11 -4 7 -8 17 -8 22 0 5 -6 3 -14 -3 -16 -13 -32 2 -21 19
10 17 43 11 58 -10z m1997 -1 c0 -6 -4 -7 -10 -4 -5 3 -10 11 -10 16 0 6 5 7
10 4 6 -3 10 -11 10 -16z m-1750 1 c0 -5 -8 -10 -17 -10 -15 0 -16 2 -3 10 19
12 20 12 20 0z m870 0 c0 -5 -2 -10 -4 -10 -3 0 -8 5 -11 10 -3 6 -1 10 4 10
6 0 11 -4 11 -10z m640 0 c0 -5 -2 -10 -4 -10 -3 0 -8 5 -11 10 -3 6 -1 10 4
10 6 0 11 -4 11 -10z m-1881 -34 c-7 -14 -17 -26 -22 -26 -6 0 1 -10 14 -22
20 -18 21 -20 4 -13 -11 4 -26 8 -33 8 -7 0 -11 7 -7 16 4 13 2 12 -9 -1 -7
-10 -23 -18 -35 -18 -18 0 -21 5 -19 30 1 17 7 29 13 26 5 -2 23 3 38 11 15 8
32 11 37 8 5 -3 12 0 15 6 13 20 16 1 4 -25z m621 24 c0 -5 -4 -10 -10 -10 -5
0 -10 5 -10 10 0 6 5 10 10 10 6 0 10 -4 10 -10z m690 -45 c0 -3 -3 -5 -7 -5
-16 0 -30 16 -37 38 -7 22 -7 22 18 -3 14 -14 26 -28 26 -30z m1167 49 c-3 -3
-12 -4 -19 -1 -8 3 -5 6 6 6 11 1 17 -2 13 -5z m-2011 -13 c11 9 14 9 14 0 0
-7 6 -11 13 -10 26 3 32 -2 32 -26 0 -29 0 -28 -26 -15 -10 6 -19 18 -19 26 0
8 -5 12 -10 9 -7 -4 -8 -11 -1 -18 6 -8 4 -16 -5 -25 -12 -11 -14 -9 -14 7 0
14 -5 18 -20 14 -11 -3 -18 -9 -15 -13 3 -4 -7 -10 -21 -13 -23 -4 -22 -2 13
32 21 20 40 32 41 28 2 -4 10 -3 18 4z m370 -21 c29 11 33 -5 8 -36 -15 -19
-15 -19 -10 1 5 16 1 20 -19 21 -14 1 -25 -3 -25 -9 0 -6 -2 -8 -5 -5 -3 3 0
18 7 34 11 27 12 27 15 7 4 -19 8 -21 29 -13z m60 3 c-10 -10 -19 5 -10 18 6
11 8 11 12 0 2 -7 1 -15 -2 -18z m1254 1 c0 -8 7 -14 16 -14 11 0 14 -6 9 -22
-5 -18 -4 -20 4 -8 9 13 12 12 25 -5 9 -11 16 -15 16 -8 0 13 31 25 73 28 24
2 26 1 15 -14 -11 -14 -11 -14 4 -3 13 10 17 10 21 0 2 -7 8 -10 12 -6 4 4 0
14 -9 23 -31 32 -11 36 22 4 25 -23 42 -18 42 12 0 11 4 18 9 15 5 -4 11 -1
13 6 5 13 28 2 28 -13 0 -6 -4 -8 -9 -5 -11 7 -33 -18 -24 -27 3 -4 -1 -7 -10
-7 -10 0 -17 -2 -17 -4 0 -2 -3 -13 -6 -23 -6 -15 -4 -16 7 -5 16 15 59 16 59
1 0 -5 5 -7 10 -4 6 3 10 1 10 -5 0 -6 -8 -10 -17 -8 -14 2 -18 -5 -20 -42 -1
-24 -6 -46 -12 -48 -6 -2 -8 -8 -5 -14 4 -6 -3 -5 -16 2 -20 11 -21 10 -11 -8
9 -17 8 -19 -8 -15 -23 6 -35 -21 -16 -37 8 -7 12 -16 9 -21 -8 -14 6 -10 22
6 8 8 20 28 26 45 6 20 16 30 26 28 26 -5 25 -27 -2 -38 -14 -5 -26 -16 -26
-24 0 -14 -41 -46 -61 -46 -7 0 -9 9 -5 24 3 14 2 27 -2 30 -8 5 -82 -39 -82
-49 0 -2 -3 -10 -6 -18 -4 -10 7 -17 40 -26 37 -9 44 -14 39 -29 -12 -32 -49
-45 -40 -13 3 14 0 17 -14 14 -11 -3 -19 0 -19 7 0 7 -7 10 -16 6 -12 -5 -14
-1 -9 17 5 19 4 19 -5 5 -6 -9 -17 -15 -25 -11 -11 3 -13 1 -10 -10 4 -9 -2
-16 -15 -20 -18 -5 -21 -2 -17 14 3 10 1 17 -4 13 -20 -12 -7 15 14 29 18 13
19 16 5 16 -10 1 -18 -4 -18 -11 0 -6 -3 -8 -7 -5 -3 4 -12 2 -20 -4 -9 -9
-13 -8 -13 0 0 6 4 11 9 11 16 0 19 38 5 64 -7 14 -9 26 -3 26 5 0 9 -4 9 -9
0 -6 9 -9 19 -8 10 0 17 6 14 12 -2 6 1 23 6 37 8 20 15 25 31 21 12 -3 24
-12 27 -20 5 -12 7 -12 14 -1 7 11 11 10 18 -2 14 -21 4 -30 -30 -23 -22 4
-28 2 -24 -8 6 -15 95 -20 95 -6 0 5 4 6 9 3 5 -4 7 3 4 14 -3 11 0 20 6 20 6
0 8 7 4 17 -5 12 -2 15 10 10 15 -6 16 -4 6 14 -8 15 -8 19 0 15 13 -8 14 3 3
22 -9 14 -53 12 -65 -3 -4 -6 -10 0 -13 13 -4 12 -11 22 -16 22 -5 0 -6 9 -3
20 8 24 2 25 -29 4 -17 -10 -26 -12 -31 -4 -5 8 -10 8 -20 0 -10 -8 -17 0 -34
35 -24 50 -25 59 -11 50 6 -3 10 -13 10 -21z m-2385 6 c3 -5 1 -10 -4 -10 -6
0 -11 5 -11 10 0 6 2 10 4 10 3 0 8 -4 11 -10z m325 -15 c-12 -15 -30 -12 -30
6 0 5 10 9 21 9 18 0 19 -2 9 -15z m1337 -7 c-4 -12 -1 -28 5 -35 12 -15 0
-17 -21 -4 -8 5 -20 7 -28 4 -11 -4 -11 -9 3 -24 10 -11 14 -22 11 -26 -4 -3
-7 0 -7 7 0 9 -6 7 -19 -6 -10 -10 -16 -23 -13 -29 3 -5 -2 -4 -10 3 -16 13
-15 34 3 58 5 6 5 15 1 19 -4 5 -2 5 5 2 6 -4 22 6 35 22 28 36 43 39 35 9z
m-820 -13 c-16 -17 -51 -7 -37 10 6 7 19 11 30 8 15 -4 16 -8 7 -18z m655 -7
c-9 -9 -12 -7 -12 12 0 19 3 21 12 12 9 -9 9 -15 0 -24z m118 23 c0 -11 -31
-24 -39 -16 -3 3 1 10 9 15 19 12 30 12 30 1z m-420 -5 c0 -3 -4 -8 -10 -11
-5 -3 -10 -1 -10 4 0 6 5 11 10 11 6 0 10 -2 10 -4z m280 0 c0 -2 -7 -6 -15
-10 -8 -3 -15 -1 -15 4 0 6 7 10 15 10 8 0 15 -2 15 -4z m-1520 -16 c0 -5 -4
-10 -10 -10 -5 0 -10 5 -10 10 0 6 5 10 10 10 6 0 10 -4 10 -10z m1791 -12
c11 -20 10 -21 -3 -10 -13 10 -17 9 -23 -10 -6 -20 -8 -21 -12 -5 -6 22 3 47
16 47 6 0 16 -10 22 -22z m-867 -3 c3 -8 1 -15 -4 -15 -6 0 -10 7 -10 15 0 8
2 15 4 15 2 0 6 -7 10 -15z m272 -39 c5 -22 4 -28 -7 -24 -7 2 -22 -4 -33 -14
-26 -24 -44 -8 -27 24 6 13 9 15 7 6 -3 -11 0 -15 7 -12 17 6 40 44 27 44 -5
0 -10 8 -10 17 0 15 2 15 14 3 8 -8 18 -28 22 -44z m-361 22 c-6 -19 -5 -21 6
-10 18 17 27 15 39 -8 9 -16 8 -18 -5 -14 -18 7 -19 3 -4 -30 14 -29 4 -80
-13 -70 -8 5 -9 1 -4 -12 4 -10 10 -35 13 -54 4 -19 10 -38 15 -41 6 -3 0 -9
-12 -12 -17 -4 -20 -2 -15 13 9 30 -5 70 -25 70 -11 0 -22 5 -26 11 -4 8 1 9
16 4 18 -6 22 -4 17 8 -3 9 -2 29 3 45 5 20 4 34 -3 42 -9 10 -9 11 1 6 6 -4
12 -2 12 3 0 20 -20 11 -29 -11 l-8 -22 -13 24 c-7 14 -18 28 -24 32 -6 5 -2
8 11 8 12 0 24 -6 26 -12 3 -7 6 -1 6 13 1 23 8 39 18 39 3 0 1 -10 -2 -22z
m650 3 c-1 -10 -9 -29 -18 -42 l-17 -24 9 25 c5 14 12 33 15 43 7 23 13 22 11
-2z m-987 -11 c4 -13 3 -13 -11 -2 -13 11 -17 10 -25 -5 -6 -10 -14 -15 -17
-11 -10 10 17 38 34 35 8 -1 17 -9 19 -17z m599 -27 c-3 -10 -5 -2 -5 17 0 19
2 27 5 18 2 -10 2 -26 0 -35z m53 37 c0 -5 -5 -10 -11 -10 -5 0 -7 5 -4 10 3
6 8 10 11 10 2 0 4 -4 4 -10z m140 6 c0 -3 -4 -8 -10 -11 -5 -3 -10 -1 -10 4
0 6 5 11 10 11 6 0 10 -2 10 -4z m1070 -7 c0 -5 -6 -8 -12 -6 -7 1 -12 -6 -10
-15 2 -12 -2 -16 -11 -12 -21 8 -10 40 14 41 10 1 19 -2 19 -8z m-2340 -10 c0
-6 7 -9 15 -5 9 3 15 0 15 -9 0 -11 -6 -12 -22 -6 -23 8 -37 31 -19 31 6 0 11
-5 11 -11z m75 1 c3 -5 1 -10 -4 -10 -6 0 -11 5 -11 10 0 6 2 10 4 10 3 0 8
-4 11 -10z m303 -10 c16 -1 16 -1 0 -10 -9 -6 -15 -18 -14 -27 2 -10 1 -12 -1
-5 -3 9 -14 12 -29 9 -19 -3 -24 0 -24 16 0 14 5 18 20 14 14 -4 20 0 21 11 0
11 2 12 6 5 2 -7 12 -13 21 -13z m132 10 c0 -5 -4 -10 -10 -10 -5 0 -10 5 -10
10 0 6 5 10 10 10 6 0 10 -4 10 -10z m100 -5 c-18 -22 -8 -41 12 -22 9 9 18
22 21 29 4 10 7 11 18 1 11 -11 10 -13 -5 -13 -17 0 -17 -2 -3 -23 15 -23 14
-23 -11 -22 -31 2 -82 25 -82 36 0 4 12 12 28 17 37 14 36 14 22 -3z m606 -12
c-7 -7 -26 7 -26 19 0 6 6 6 15 -2 9 -7 13 -15 11 -17z m109 7 c-3 -5 6 -15
21 -23 16 -8 22 -17 16 -21 -6 -3 -27 4 -48 16 -37 22 -38 22 -13 29 13 4 25
7 27 8 2 1 1 -3 -3 -9z m244 -33 c0 -27 -2 -29 -9 -12 -12 28 -12 57 0 50 6
-3 10 -21 9 -38z m-636 12 c-4 -15 -9 -17 -17 -9 -8 8 -7 13 4 20 8 5 16 10
17 10 0 0 -1 -9 -4 -21z m1114 -5 c-9 -9 -28 6 -21 18 4 6 10 6 17 -1 6 -6 8
-13 4 -17z m-1503 -16 c-2 -3 18 -25 46 -48 51 -43 61 -68 35 -90 -13 -11 -14
-8 -8 21 6 32 5 33 -13 19 -17 -14 -18 -14 -6 1 11 14 8 21 -20 43 -18 14 -38
31 -45 36 -15 12 -29 -7 -25 -32 2 -11 -3 -18 -12 -18 -10 0 -13 6 -9 16 5 14
3 15 -15 5 -27 -14 -43 -14 -17 1 19 11 19 11 0 20 -16 7 -15 7 6 3 25 -4 59
22 59 46 0 5 6 4 14 -3 8 -7 12 -16 10 -20z m-434 2 c0 -18 20 -26 53 -21 11
2 8 -24 -5 -37 -17 -17 -28 -15 -21 4 5 14 3 15 -17 4 -18 -9 -21 -18 -16 -40
4 -22 2 -28 -8 -24 -8 3 -12 14 -9 25 3 10 0 19 -6 19 -6 0 -11 5 -11 10 0 6
6 10 14 10 8 0 18 5 22 12 5 7 2 9 -9 5 -25 -9 -41 18 -22 37 22 22 35 20 35
-4z m300 -1 c0 -5 -4 -9 -10 -9 -5 0 -10 7 -10 16 0 8 5 12 10 9 6 -3 10 -10
10 -16z m630 0 c0 -5 -7 -9 -15 -9 -9 0 -12 6 -9 15 6 15 24 11 24 -6z m212 4
c18 -16 18 -16 12 0 -9 24 13 21 61 -8 l40 -25 -31 0 c-21 0 -34 6 -38 17 -5
13 -9 14 -19 4 -17 -17 33 -62 56 -49 18 10 68 6 67 -5 0 -4 0 -12 0 -18 0 -8
-4 -8 -12 -2 -30 23 -43 21 -44 -8 -1 -16 2 -26 6 -24 4 3 10 -6 12 -20 6 -31
-5 -32 -25 -2 -13 18 -16 19 -16 5 -1 -20 -31 -25 -31 -5 0 6 -12 -1 -27 -18
l-26 -30 6 30 c4 17 8 54 10 84 3 52 2 54 -30 68 -18 7 -33 15 -33 18 0 12 45
3 62 -12z m445 -3 c-3 -11 -1 -18 4 -14 5 3 9 1 9 -5 0 -20 -22 -23 -35 -5
-12 16 -12 21 2 32 23 17 26 15 20 -8z m123 0 c0 -8 -52 -21 -59 -14 -3 2 4
10 14 18 19 14 45 11 45 -4z m-750 -10 c0 -5 -4 -10 -10 -10 -5 0 -10 5 -10
10 0 6 5 10 10 10 6 0 10 -4 10 -10z m400 0 c0 -5 -5 -10 -11 -10 -5 0 -7 5
-4 10 3 6 8 10 11 10 2 0 4 -4 4 -10z m36 -4 c20 -21 17 -28 -6 -14 -11 7 -20
16 -20 20 0 12 10 9 26 -6z m-1262 -10 c-9 -24 -34 -28 -34 -6 0 13 7 20 20
20 13 0 17 -5 14 -14z m976 10 c0 -2 -9 -6 -20 -9 -11 -3 -20 -1 -20 4 0 5 9
9 20 9 11 0 20 -2 20 -4z m1170 -11 c-7 -9 -15 -13 -19 -10 -3 3 1 10 9 15 21
14 24 12 10 -5z m-750 -10 c0 -12 -19 -12 -23 0 -4 9 -1 12 9 8 7 -3 14 -7 14
-8z m787 -10 c-4 -8 -11 -15 -17 -15 -7 0 -7 6 0 21 13 23 26 19 17 -6z
m-2003 -28 c-5 -27 -25 -67 -34 -67 -4 0 -15 9 -25 20 -16 17 -17 23 -5 45 21
40 72 41 64 2z m289 -8 c-21 -7 -28 4 -18 29 6 16 8 15 21 -3 13 -17 13 -20
-3 -26z m62 30 c11 -17 -1 -21 -15 -4 -8 9 -8 15 -2 15 6 0 14 -5 17 -11z
m725 -17 c0 -15 -2 -15 -10 -2 -13 20 -13 33 0 25 6 -3 10 -14 10 -23z m90 13
c9 -10 9 -15 1 -15 -6 0 -11 4 -11 9 0 5 -8 12 -17 14 -15 4 -15 5 -2 6 9 0
22 -6 29 -14z m160 5 c0 -5 -4 -10 -10 -10 -5 0 -10 5 -10 10 0 6 5 10 10 10
6 0 10 -4 10 -10z m-665 -10 c3 -6 -1 -7 -9 -4 -18 7 -21 14 -7 14 6 0 13 -4
16 -10z m575 5 c0 -2 -9 -9 -20 -15 -12 -6 -20 -7 -20 -1 0 5 8 12 18 14 9 3
18 5 20 6 1 0 2 -1 2 -4z m-1437 -32 c6 -33 2 -40 -16 -25 -8 7 -16 10 -18 7
-3 -2 -5 4 -5 15 0 10 4 16 8 14 4 -3 8 0 8 5 0 23 18 10 23 -16z m747 17 c0
-5 -4 -10 -10 -10 -5 0 -10 5 -10 10 0 6 5 10 10 10 6 0 10 -4 10 -10z m230
-9 c-5 -11 -15 -21 -22 -24 -9 -3 -5 -11 12 -25 24 -21 19 -27 -16 -23 -6 1
-10 -9 -9 -21 1 -13 -1 -32 -6 -43 -6 -15 -8 -11 -8 18 -1 21 4 47 9 57 8 15
6 21 -10 30 -11 6 -18 15 -14 21 4 6 11 6 20 -2 11 -9 14 -9 14 0 0 7 5 9 12
5 8 -5 9 -2 5 9 -4 11 -1 17 9 17 11 0 12 -4 4 -19z m251 -4 c-10 -9 -11 -8
-5 6 3 10 9 15 12 12 3 -3 0 -11 -7 -18z m585 8 c-8 -8 -20 -15 -27 -15 -9 0
-8 4 1 15 7 8 19 15 27 15 12 0 12 -2 -1 -15z m534 5 c0 -5 -4 -10 -10 -10 -5
0 -10 5 -10 10 0 6 5 10 10 10 6 0 10 -4 10 -10z m-2405 -22 c-1 -13 -3 -25
-4 -27 0 -2 -10 4 -22 15 -19 17 -19 19 -2 25 28 12 30 10 28 -13z m841 -8 c0
-11 -6 -20 -12 -20 -7 0 -10 8 -7 20 3 11 8 20 12 20 4 0 7 -9 7 -20z m660 8
c4 -7 3 -8 -4 -4 -7 4 -12 2 -12 -5 0 -7 -3 -10 -6 -6 -6 5 3 27 11 27 2 0 7
-5 11 -12z m-1183 -4 c11 -11 -3 -24 -18 -18 -8 4 -12 10 -9 15 6 11 18 12 27
3z m251 -10 c9 -24 7 -28 -9 -14 -17 14 -20 30 -6 30 5 0 12 -7 15 -16z m643
-6 c-3 -8 -6 -5 -6 6 -1 11 2 17 5 13 3 -3 4 -12 1 -19z m-237 -19 c0 -5 -4
-9 -10 -9 -5 0 -10 7 -10 16 0 8 5 12 10 9 6 -3 10 -10 10 -16z m652 7 c7 4 8
2 4 -5 -9 -13 -26 -5 -25 12 0 9 2 8 6 -1 2 -6 10 -9 15 -6z m-1442 0 c0 -3
-4 -8 -10 -11 -5 -3 -10 -1 -10 4 0 6 5 11 10 11 6 0 10 -2 10 -4z m430 -6 c0
-5 -4 -10 -10 -10 -5 0 -10 5 -10 10 0 6 5 10 10 10 6 0 10 -4 10 -10z m730
-20 c0 -16 -5 -30 -11 -30 -5 0 -9 8 -7 18 1 9 -1 23 -5 30 -5 8 -3 12 7 12
11 0 16 -9 16 -30z m120 26 c0 -3 -4 -8 -10 -11 -5 -3 -10 -1 -10 4 0 6 5 11
10 11 6 0 10 -2 10 -4z m-1486 -36 c6 -31 26 -42 26 -15 0 9 9 15 23 14 12 0
16 -3 10 -6 -7 -2 -13 -9 -13 -14 0 -4 7 -6 16 -2 13 5 15 2 9 -18 -4 -13 -12
-27 -18 -30 -5 -4 -6 -12 -1 -20 5 -8 9 -21 11 -29 2 -17 -16 -42 -27 -35 -4
2 -6 -11 -4 -30 2 -33 -8 -46 -21 -25 -3 5 -20 7 -37 3 -25 -5 -30 -3 -26 8 6
14 -14 16 -84 6 -15 -2 -29 1 -32 8 -4 12 -2 13 112 16 34 0 62 4 62 8 0 4 -7
16 -15 27 -19 26 -19 35 3 27 11 -4 5 7 -15 30 -34 39 -47 81 -18 57 16 -13
18 -9 15 28 -2 33 17 27 24 -8z m166 20 c0 -5 -7 -10 -15 -10 -8 0 -15 5 -15
10 0 6 7 10 15 10 8 0 15 -4 15 -10z m1090 0 c12 -7 12 -12 2 -22 -10 -10 -15
-10 -22 2 -12 18 -13 30 -2 30 4 0 14 -5 22 -10z m-930 -9 c0 -5 3 -16 6 -25
5 -13 -1 -16 -25 -16 -37 0 -41 -17 -7 -30 13 -5 27 -17 31 -27 3 -10 20 -29
36 -42 29 -23 31 -23 44 -5 11 15 14 16 15 4 0 -8 -10 -21 -22 -29 l-22 -14
25 -20 c14 -12 17 -18 7 -14 -10 3 -20 2 -23 -4 -4 -5 -11 -6 -17 -3 -6 4 -5
-3 2 -16 7 -14 8 -20 1 -16 -6 4 -29 -3 -52 -14 -47 -24 -58 -21 -36 10 11 16
17 18 23 9 5 -9 10 -6 16 10 10 28 -8 67 -25 53 -16 -14 -67 -3 -67 13 0 9 8
11 23 7 l22 -5 -20 23 c-12 14 -14 20 -5 15 13 -8 13 -7 1 8 -12 15 -11 17 4
17 17 0 17 1 0 20 -10 11 -21 17 -24 13 -3 -5 -17 -9 -31 -11 -23 -2 -24 -1
-7 11 9 8 17 22 17 31 0 10 4 15 9 11 5 -3 16 1 24 9 8 8 17 12 21 9 3 -4 6
-1 6 5 0 6 7 9 15 6 8 -4 15 -1 15 5 0 6 5 11 10 11 6 0 10 -4 10 -9z m184 -6
c3 -8 1 -15 -4 -15 -6 0 -10 7 -10 15 0 8 2 15 4 15 2 0 6 -7 10 -15z m96 5
c0 -5 -4 -10 -10 -10 -5 0 -10 5 -10 10 0 6 5 10 10 10 6 0 10 -4 10 -10z
m283 -10 c3 -11 3 -20 1 -20 -2 0 -8 9 -14 20 -6 11 -7 20 -2 20 6 0 12 -9 15
-20z m77 -12 c0 -36 -12 -31 -16 7 -1 14 2 25 7 25 5 0 9 -14 9 -32z m950 22
c0 -5 -2 -10 -4 -10 -3 0 -8 5 -11 10 -3 6 -1 10 4 10 6 0 11 -4 11 -10z
m-420 -10 c0 -5 -4 -10 -10 -10 -5 0 -10 5 -10 10 0 6 5 10 10 10 6 0 10 -4
10 -10z m-330 -20 c0 -5 -9 -8 -19 -7 -10 0 -17 7 -14 13 5 13 33 8 33 -6z
m-350 -42 c-18 -81 -48 -125 -65 -98 -3 6 -1 10 5 10 11 0 36 50 45 93 3 15 9
27 14 27 5 0 6 -15 1 -32z m1640 22 c0 -5 -5 -10 -11 -10 -5 0 -7 5 -4 10 3 6
8 10 11 10 2 0 4 -4 4 -10z m-2550 -25 c0 -8 -4 -15 -9 -15 -13 0 -22 16 -14
24 11 11 23 6 23 -9z m260 -11 c12 -30 13 -74 3 -74 -5 0 -14 4 -21 9 -10 6
-10 10 3 21 21 17 19 24 -10 40 -25 13 -25 30 1 30 8 0 19 -12 24 -26z m489 3
c-8 -13 -14 -16 -21 -9 -13 13 -4 29 16 29 12 0 13 -5 5 -20z m1868 1 c-3 -8
-6 -5 -6 6 -1 11 2 17 5 13 3 -3 4 -12 1 -19z m-1899 -12 c8 -18 6 -29 -9 -52
-10 -16 -19 -27 -20 -24 0 3 -2 13 -4 23 -2 9 2 17 8 17 8 0 7 3 -2 9 -8 5
-11 16 -6 30 8 27 19 27 33 -3z m319 9 c0 -8 -4 -12 -9 -9 -4 3 -8 0 -8 -7 0
-7 -3 -9 -6 -6 -4 4 -1 13 6 22 15 19 17 19 17 0z m53 -16 c0 -6 -4 -7 -10 -4
-5 3 -10 11 -10 16 0 6 5 7 10 4 6 -3 10 -11 10 -16z m-1142 -1 c-6 -18 -28
-21 -28 -4 0 9 7 16 16 16 9 0 14 -5 12 -12z m284 -20 c-15 -15 -26 -4 -18 18
5 13 9 15 18 6 9 -9 9 -15 0 -24z m713 22 c3 -5 -1 -10 -10 -10 -9 0 -13 5
-10 10 3 6 8 10 10 10 2 0 7 -4 10 -10z m364 -6 c2 -2 2 -7 -2 -10 -9 -9 -57
5 -57 16 0 9 47 4 59 -6z m46 6 c8 -13 -5 -13 -25 0 -13 8 -13 10 2 10 9 0 20
-4 23 -10z m1026 -32 c5 1 9 -4 9 -12 0 -8 5 -16 12 -18 6 -2 8 -10 4 -17 -6
-9 -12 -7 -25 8 -10 11 -22 17 -26 13 -5 -4 -5 -1 -1 6 4 6 2 12 -3 12 -6 0
-11 7 -11 15 0 8 -5 15 -11 15 -5 0 -7 5 -4 10 4 7 15 2 27 -12 11 -13 24 -22
29 -20z m-2074 21 c9 -9 8 -15 -2 -25 -19 -20 -25 -17 -25 11 0 27 9 32 27 14z
m282 -27 c-7 -12 -19 -18 -27 -14 -9 3 -13 1 -9 -5 4 -5 0 -19 -8 -29 -17 -23
-19 -5 -3 31 7 16 17 24 26 20 9 -3 12 0 9 9 -7 18 4 29 16 17 5 -5 3 -17 -4
-29z m1630 24 c8 -9 10 -35 5 -80 -6 -61 -9 -67 -33 -71 -49 -10 -106 -24
-124 -31 -14 -5 -11 1 8 20 24 24 34 27 76 24 42 -3 49 0 49 16 0 16 -2 17
-17 5 -15 -12 -16 -12 -11 8 4 13 0 27 -8 34 -10 8 -14 8 -14 0 0 -6 -5 -11
-10 -11 -8 0 -8 65 -1 98 3 9 71 -1 80 -12z m-1428 -9 c-1 -4 -1 -13 -1 -21 0
-8 -12 -17 -26 -20 -30 -8 -39 -3 -29 14 6 9 9 9 15 0 5 -8 10 -2 14 15 4 14
11 25 17 23 6 -2 10 -7 10 -11z m333 -3 c4 -9 4 -19 2 -21 -8 -8 -26 8 -26 23
0 19 16 18 24 -2z m1308 4 c6 6 16 12 22 12 5 0 1 -8 -10 -19 -19 -19 -44 -12
-44 13 0 6 5 4 10 -4 7 -12 12 -12 22 -2z m-1522 -38 c-10 -6 -9 -10 1 -16 8
-5 19 -19 26 -31 10 -17 9 -22 -3 -27 -23 -9 -34 -7 -34 5 0 5 5 7 10 4 14 -9
12 2 -6 30 -13 20 -13 27 -2 44 7 12 15 16 17 10 2 -6 -2 -15 -9 -19z m795 20
c3 -5 1 -10 -4 -10 -6 0 -11 5 -11 10 0 6 2 10 4 10 3 0 8 -4 11 -10z m-1755
-8 c0 -13 -12 -22 -22 -16 -10 6 -1 24 13 24 5 0 9 -4 9 -8z m1113 -38 c-9
-25 -38 -11 -41 19 -3 28 -3 28 22 12 15 -10 23 -22 19 -31z m28 23 c-1 -12
-15 -9 -19 4 -3 6 1 10 8 8 6 -3 11 -8 11 -12z m679 3 c0 -5 -2 -10 -4 -10 -3
0 -8 5 -11 10 -3 6 -1 10 4 10 6 0 11 -4 11 -10z m547 4 c-3 -3 -12 -4 -19 -1
-8 3 -5 6 6 6 11 1 17 -2 13 -5z m-2077 -13 c0 -5 -7 -11 -15 -15 -15 -5 -20
5 -8 17 9 10 23 9 23 -2z m1080 5 c0 -2 -7 -6 -15 -10 -8 -3 -15 -1 -15 4 0 6
7 10 15 10 8 0 15 -2 15 -4z m1356 -21 c1 -8 -2 -15 -7 -15 -5 0 -9 10 -9 22
0 23 12 17 16 -7z m-2029 -17 c-3 -8 -6 -5 -6 6 -1 11 2 17 5 13 3 -3 4 -12 1
-19z m500 16 c-3 -3 -12 -4 -19 -1 -8 3 -5 6 6 6 11 1 17 -2 13 -5z m1203 -4
c0 -5 -5 -10 -11 -10 -5 0 -7 5 -4 10 3 6 8 10 11 10 2 0 4 -4 4 -10z m-1496
-15 c-4 -8 -11 -12 -16 -9 -6 4 -5 10 3 15 19 12 19 11 13 -6z m-497 -15 c-2
-11 -9 -26 -15 -32 -10 -10 -12 -7 -8 12 2 14 5 28 5 33 1 4 5 7 11 7 5 0 8
-9 7 -20z m214 -4 c-6 -7 -8 -16 -5 -19 4 -3 -1 -13 -10 -22 -15 -15 -20 -12
-17 8 0 4 -6 7 -14 7 -18 0 -19 7 -2 24 26 26 69 28 48 2z m-292 -2 c40 -16
60 -42 42 -54 -13 -8 36 -37 69 -42 14 -1 31 -9 38 -15 7 -7 20 -13 28 -13 8
0 14 -4 14 -9 0 -12 -29 -23 -41 -15 -5 3 -9 -2 -9 -10 0 -10 -6 -13 -17 -9
-10 4 -14 2 -10 -4 8 -13 -12 -22 -30 -15 -7 2 -13 9 -13 14 0 6 8 5 18 -3 14
-11 15 -11 5 1 -18 20 -16 30 5 23 14 -5 15 -4 4 8 -11 12 -15 12 -25 -2 -16
-22 -57 -43 -57 -29 0 5 7 10 16 10 11 0 13 6 9 19 -3 11 -1 22 5 26 5 3 10 1
10 -5 0 -6 4 -8 10 -5 13 8 -10 45 -28 45 -9 0 -11 -7 -7 -20 4 -12 2 -20 -5
-20 -7 0 -10 -7 -6 -15 3 -8 0 -15 -6 -15 -7 0 -8 11 -3 33 9 42 8 71 -3 75
-5 1 -18 10 -28 18 -18 14 -18 15 4 4 12 -6 22 -7 22 -2 0 5 -17 16 -37 25
-21 8 -32 15 -26 16 7 1 30 -6 52 -15z m-319 -1 c-1 -18 -18 -35 -24 -24 -4 6
-4 16 -1 21 7 12 25 13 25 3z m1520 -6 c0 -7 -10 -13 -21 -14 -21 -2 -21 -1
-3 12 24 18 24 18 24 2z m-1225 -37 c11 -12 15 -21 10 -20 -21 4 -36 0 -31 -9
8 -12 -25 -24 -36 -13 -5 5 -4 21 2 36 5 15 7 32 4 38 -11 17 29 -8 51 -32z
m-246 -7 c-1 -22 -3 -29 -6 -18 -3 11 -12 28 -21 38 -14 16 -13 17 6 17 19 0
22 -5 21 -37z m826 27 c-3 -5 -12 -10 -18 -10 -7 0 -6 4 3 10 19 12 23 12 15
0z m1440 0 c-3 -5 -16 -10 -28 -9 -20 1 -20 2 3 9 14 4 26 8 28 9 2 1 0 -3 -3
-9z m-1746 -33 c-2 -1 -13 -9 -24 -17 -19 -14 -19 -14 -6 3 7 9 18 17 24 17 6
0 8 -1 6 -3z m311 -7 c0 -5 -2 -10 -4 -10 -3 0 -8 5 -11 10 -3 6 -1 10 4 10 6
0 11 -4 11 -10z m-857 -35 c15 -14 27 -29 27 -32 0 -6 -40 26 -51 41 -4 4 -10
3 -13 -3 -8 -12 -26 -6 -26 10 0 18 36 9 63 -16z m99 -1 c-4 -22 -6 -24 -14
-10 -9 16 -3 36 11 36 5 0 6 -12 3 -26z m394 17 c-4 -5 0 -11 6 -14 7 -2 10
-8 6 -12 -4 -4 -14 -1 -22 8 -15 14 -12 27 6 27 5 0 7 -4 4 -9z m-213 -23 c15
-16 22 -52 9 -44 -6 3 -12 3 -15 -1 -2 -5 -2 -3 -1 4 2 6 -4 17 -12 23 -8 7
-14 16 -14 21 0 13 20 11 33 -3z m2247 -28 c0 -5 -4 -10 -10 -10 -5 0 -10 5
-10 10 0 6 5 10 10 10 6 0 10 -4 10 -10z m-2430 -15 c-7 -9 -15 -13 -17 -11
-7 7 7 26 19 26 6 0 6 -6 -2 -15z m801 -2 c12 -15 12 -16 -5 -10 -14 6 -17 4
-12 -8 3 -8 1 -15 -3 -15 -15 0 -22 33 -9 42 7 4 14 8 14 8 1 0 8 -8 15 -17z
m1246 -10 c-46 -32 -47 -43 -4 -44 l32 -1 -38 -8 c-44 -8 -63 -22 -21 -16 70
11 128 14 109 6 -11 -5 -29 -9 -39 -9 -11 -1 -35 -18 -53 -38 -33 -36 -34 -36
-48 -16 -9 12 -13 36 -11 55 2 18 4 39 5 46 1 16 60 52 86 52 15 0 11 -6 -18
-27z m-1889 -1 c-2 -11 3 -26 11 -35 20 -25 0 -20 -31 7 -30 25 -36 39 -14 30
8 -3 17 -1 21 5 10 17 17 13 13 -7z m2232 8 c0 -5 -5 -10 -11 -10 -5 0 -7 5
-4 10 3 6 8 10 11 10 2 0 4 -4 4 -10z m149 -16 c-15 -18 -22 -13 -13 10 3 9
10 13 16 10 5 -3 4 -12 -3 -20z m-1809 -15 c0 -5 5 -7 10 -4 6 3 10 1 10 -4 0
-16 -16 -13 -30 4 -9 10 -9 15 -1 15 6 0 11 -5 11 -11z m-470 -9 c0 -5 -2 -10
-4 -10 -3 0 -8 5 -11 10 -3 6 -1 10 4 10 6 0 11 -4 11 -10z m-216 -9 c4 -5 -3
-7 -14 -4 -27 7 -27 -18 0 -35 11 -7 20 -18 20 -24 0 -9 -3 -9 -12 0 -17 17
-41 15 -34 -3 3 -8 1 -15 -4 -15 -6 0 -10 9 -10 19 0 11 -6 22 -12 24 -8 3 -5
6 6 6 15 1 16 4 7 15 -10 11 -8 15 6 19 30 8 42 7 47 -2z m826 -5 c0 -3 -4 -8
-10 -11 -5 -3 -10 -1 -10 4 0 6 5 11 10 11 6 0 10 -2 10 -4z m-633 -20 c0 -8
-6 -12 -14 -9 -8 3 -13 2 -12 -3 5 -28 -1 -35 -22 -23 -26 13 -54 -5 -30 -20
7 -5 11 -14 7 -19 -9 -15 -38 -3 -32 13 7 19 -5 27 -21 14 -10 -9 -13 -8 -13
5 0 11 7 16 18 14 11 -2 27 4 37 12 14 11 19 12 22 3 7 -19 21 -16 28 7 7 23
32 27 32 6z m789 -47 c-26 -21 -56 -25 -56 -8 0 6 5 9 12 7 6 -2 20 4 30 14
10 10 23 16 29 13 5 -4 -1 -15 -15 -26z m-476 17 c0 -3 -4 -8 -10 -11 -5 -3
-10 -1 -10 4 0 6 5 11 10 11 6 0 10 -2 10 -4z m-285 -37 c15 -29 15 -32 -2
-51 -18 -21 -18 -21 4 -9 14 7 24 8 28 1 3 -5 3 -10 -2 -11 -4 0 -18 -2 -30
-5 -27 -5 -30 8 -8 30 14 14 14 18 0 46 -8 16 -13 30 -11 30 3 0 13 -14 21
-31z m155 11 c-28 -8 -35 -6 -26 8 3 6 16 7 29 4 22 -6 22 -6 -3 -12z m1010 5
c0 -8 -2 -15 -4 -15 -2 0 -6 7 -10 15 -3 8 -1 15 4 15 6 0 10 -7 10 -15z
m-1550 1 c0 -11 -19 -15 -25 -6 -3 5 1 10 9 10 9 0 16 -2 16 -4z m60 -31 c11
-13 10 -14 -4 -9 -10 4 -16 1 -16 -7 0 -7 -2 -10 -5 -7 -5 5 4 38 10 38 1 0 8
-7 15 -15z m1975 -56 c-9 -35 -21 -68 -26 -73 -5 -6 0 23 11 62 11 39 20 75
20 79 0 3 3 4 6 1 3 -3 -2 -34 -11 -69z m475 50 c0 -36 -19 -59 -48 -59 -34 0
-52 16 -52 46 0 26 11 32 63 33 31 1 37 -2 37 -20z m-1380 -9 c0 -5 -9 -12
-20 -15 -11 -3 -20 -13 -20 -21 0 -8 -4 -14 -10 -14 -13 0 -13 3 1 34 7 14 16
23 20 20 5 -3 9 0 9 6 0 6 5 8 10 5 6 -3 10 -10 10 -15z m-975 -47 c-2 -27 -4
-58 -4 -70 -1 -13 -5 -23 -10 -23 -5 0 -8 11 -5 25 5 29 -2 31 -30 8 -17 -14
-16 -12 2 9 19 21 23 33 17 58 -5 23 -4 30 4 26 6 -4 11 0 11 9 0 9 4 14 9 11
5 -3 7 -27 6 -53z m521 44 c4 -4 -1 -14 -12 -22 -16 -13 -16 -14 -1 -9 11 4
17 1 17 -8 0 -10 -9 -13 -29 -10 -20 3 -28 9 -25 18 2 8 6 20 8 28 5 14 29 16
42 3z m604 -1 c0 -21 -11 -46 -20 -46 -7 0 -7 35 -1 58 3 9 21 -1 21 -12z m80
6 c0 -5 -9 -17 -20 -27 -11 -10 -20 -13 -20 -7 0 7 4 12 10 12 5 0 7 7 4 15
-4 9 0 15 10 15 9 0 16 -4 16 -8z m-880 -15 c47 4 48 4 52 -28 6 -42 -4 -91
-21 -97 -9 -3 -11 0 -6 8 6 10 4 12 -8 7 -23 -9 -21 6 3 28 23 21 26 45 6 45
-8 0 -17 -11 -20 -25 -4 -14 -13 -25 -21 -25 -21 0 -19 -26 2 -34 15 -6 15 -8
3 -16 -8 -5 -11 -12 -7 -16 4 -4 13 -2 19 4 7 7 22 12 35 12 13 0 26 7 29 15
8 20 31 19 31 -1 0 -18 -53 -48 -69 -38 -8 5 -9 1 -5 -10 5 -14 3 -17 -8 -12
-18 7 -21 -20 -2 -28 6 -3 2 -3 -10 0 -17 4 -21 2 -18 -8 3 -8 -4 -18 -17 -24
-13 -6 -17 -9 -10 -7 9 2 10 -2 3 -15 -7 -14 -5 -17 15 -18 13 -1 24 2 24 6 0
4 11 8 25 8 20 0 24 -4 20 -18 -3 -10 0 -22 6 -26 8 -4 9 -3 5 4 -4 7 -1 12 6
12 18 -1 49 -26 41 -33 -3 -4 -1 -7 5 -7 7 0 13 10 13 23 1 16 2 18 6 5 5 -20
19 -23 29 -7 5 8 9 8 14 -1 4 -7 13 2 24 25 23 47 27 42 14 -17 -10 -42 -13
-46 -31 -37 -12 7 -17 7 -13 1 7 -12 -36 -24 -47 -13 -5 5 -23 5 -41 0 l-31
-9 25 20 25 19 -37 -2 c-21 -1 -40 -8 -43 -14 -2 -7 -15 -13 -27 -13 -17 0
-19 -3 -9 -9 7 -5 11 -13 8 -18 -6 -9 -47 -10 -63 -1 -12 7 -46 4 -62 -6 -10
-6 -11 -1 -6 21 8 33 20 43 46 38 10 -2 18 1 18 7 0 6 9 8 21 5 13 -3 19 -1
16 6 -2 7 -11 12 -20 12 -19 0 -30 11 -33 31 -5 32 -13 41 -52 52 -22 7 -43
19 -46 27 -7 19 14 19 39 1 19 -14 32 -13 72 7 17 7 30 7 49 -1 14 -7 23 -8
19 -2 -3 5 -24 14 -45 20 -24 7 -40 17 -40 26 0 8 4 13 8 10 10 -6 59 31 51
39 -4 3 -14 -1 -23 -10 -12 -12 -25 -15 -47 -10 -21 5 -29 4 -25 -3 3 -6 0
-12 -6 -15 -10 -3 -8 -10 6 -26 22 -24 6 -29 -18 -5 -9 8 -16 11 -16 5 0 -6
-4 -11 -10 -11 -5 0 -10 8 -10 17 0 9 -3 13 -7 10 -3 -4 -12 -2 -18 3 -7 6
-20 7 -29 4 -13 -5 -14 -9 -5 -20 9 -12 9 -13 -3 -9 -9 4 -18 -1 -22 -10 -4
-11 -1 -16 12 -14 34 4 51 -11 46 -40 -4 -20 -1 -30 10 -34 13 -5 15 -1 11 21
-5 24 -4 24 4 6 11 -24 31 -41 31 -26 0 16 38 21 44 6 3 -7 0 -11 -7 -8 -7 2
-23 -5 -36 -17 -16 -15 -26 -18 -33 -11 -8 8 -19 5 -40 -9 -15 -11 -28 -18
-28 -15 0 2 -3 12 -7 21 -5 14 -2 16 18 10 16 -4 20 -3 10 3 -9 7 -10 12 -2
16 14 9 14 26 1 26 -5 0 -10 -7 -10 -16 0 -23 -42 -13 -47 11 -2 11 1 38 7 60
5 22 11 71 13 108 4 65 11 87 23 75 8 -9 8 -40 0 -68 -4 -14 -4 -20 1 -14 4 6
18 10 31 9 26 -2 30 15 4 22 -12 3 -18 13 -17 26 1 18 8 21 46 22 41 0 44 -2
46 -28 1 -16 13 -40 27 -54 15 -14 26 -24 27 -22 6 32 6 40 -3 46 -7 4 -8 1
-3 -7 5 -9 4 -11 -3 -6 -17 10 -15 29 2 23 8 -3 22 3 31 13 15 17 16 22 4 37
-10 14 -10 15 0 6 8 -6 32 -9 61 -6z m530 3 c0 -5 -2 -10 -4 -10 -3 0 -8 5
-11 10 -3 6 -1 10 4 10 6 0 11 -4 11 -10z m-935 -51 c1 -39 -11 -49 -33 -27
-15 15 -16 32 -2 23 6 -3 11 0 11 7 1 7 2 18 4 23 1 6 3 14 3 19 4 24 17 -9
17 -45z m1438 14 c6 -34 3 -53 -7 -42 -9 10 -16 79 -8 79 5 0 12 -17 15 -37z
m-292 15 c1 -7 1 -16 0 -20 0 -5 6 -8 15 -8 9 0 14 -5 12 -12 -6 -16 -20 -19
-37 -9 -11 7 -12 13 -3 23 9 11 9 17 0 26 -9 9 -9 12 0 12 7 0 13 -6 13 -12z
m-206 -16 c-3 -3 -11 0 -18 7 -9 10 -8 11 6 5 10 -3 15 -9 12 -12z m116 -1 c6
10 9 8 9 -8 0 -24 -15 -29 -38 -15 -7 5 -10 16 -6 26 7 17 8 17 17 1 8 -14 11
-15 18 -4z m926 -3 c-3 -8 -6 -5 -6 6 -1 11 2 17 5 13 3 -3 4 -12 1 -19z
m-2047 -12 c0 -3 -4 -8 -10 -11 -5 -3 -10 -1 -10 4 0 6 5 11 10 11 6 0 10 -2
10 -4z m2035 -38 c-10 -51 -16 -70 -21 -65 -6 5 16 97 23 97 3 0 2 -15 -2 -32z
m-2058 -18 c-2 -8 -9 -14 -15 -12 -7 1 -12 -2 -12 -8 0 -5 -4 -10 -10 -10 -5
0 -8 10 -6 23 3 12 5 28 5 35 1 10 5 10 21 0 11 -7 19 -20 17 -28z m653 31 c0
-5 9 -7 20 -4 32 9 23 -12 -12 -25 -37 -14 -42 -11 -33 17 6 21 25 29 25 12z
m190 -1 c0 -5 -12 -10 -27 -10 -22 0 -25 2 -13 10 20 13 40 13 40 0z m645 0
c3 -5 1 -10 -4 -10 -6 0 -11 5 -11 10 0 6 2 10 4 10 3 0 8 -4 11 -10z m201
-17 c-2 -9 -8 -19 -14 -21 -16 -5 -15 25 1 31 6 3 13 6 14 6 1 1 0 -7 -1 -16z
m-1628 -2 c10 -6 8 -10 -10 -14 -36 -10 -42 -8 -28 8 14 17 20 18 38 6z m752
-33 c0 -6 -7 -5 -15 2 -8 7 -15 17 -15 22 0 6 7 5 15 -2 8 -7 15 -17 15 -22z
m540 -9 c0 -8 -7 -6 -20 6 -11 10 -17 22 -14 26 6 11 34 -15 34 -32z m950 16
c22 -14 44 -25 50 -25 5 0 10 -5 10 -11 0 -10 -81 31 -104 52 -19 17 5 9 44
-16z m-1648 -10 c-17 -14 -34 -25 -38 -25 -5 0 4 11 20 25 16 14 33 25 38 25
5 0 -4 -11 -20 -25z m-609 -11 c-3 -8 -12 -13 -20 -10 -8 3 -18 6 -21 7 -8 0
29 17 40 18 4 1 5 -6 1 -15z m714 10 c-3 -3 -12 -4 -19 -1 -8 3 -5 6 6 6 11 1
17 -2 13 -5z m144 -7 c-1 -12 -15 -9 -19 4 -3 6 1 10 8 8 6 -3 11 -8 11 -12z
m349 3 c0 -5 -6 -9 -12 -7 -8 1 -13 -8 -12 -20 0 -13 -3 -23 -8 -23 -10 0 -11
44 -1 53 10 11 33 8 33 -3z m-556 -8 c3 -5 -1 -9 -9 -9 -8 0 -15 4 -15 9 0 4
4 8 9 8 6 0 12 -4 15 -8z m406 -4 c0 -11 -12 -10 -30 2 -12 7 -10 9 8 7 12 0
22 -5 22 -9z m30 8 c0 -3 -4 -8 -10 -11 -5 -3 -10 -1 -10 4 0 6 5 11 10 11 6
0 10 -2 10 -4z m951 -37 c-8 -21 -10 -22 -16 -6 -10 23 2 54 16 40 6 -6 6 -18
0 -34z m-1335 -6 c-11 -11 -17 4 -9 23 7 18 8 18 11 1 2 -10 1 -21 -2 -24z
m339 17 c3 -5 2 -10 -4 -10 -5 0 -13 5 -16 10 -3 6 -2 10 4 10 5 0 13 -4 16
-10z m-1055 -20 c0 -5 -9 -8 -20 -7 -22 1 -27 13 -7 20 14 5 27 -1 27 -13z
m706 -29 c-4 -6 -13 -11 -19 -11 -7 0 -6 4 3 10 10 6 11 10 3 10 -7 0 -13 8
-13 17 0 16 1 16 16 1 9 -9 13 -21 10 -27z m-646 13 c0 -14 -3 -15 -17 -3 -10
7 -20 15 -22 16 -2 2 5 3 17 3 14 0 22 -6 22 -16z m600 4 c0 -4 -5 -8 -11 -8
-7 0 -18 -8 -25 -17 -7 -10 -16 -14 -20 -10 -5 4 -2 12 6 17 8 6 11 10 7 10
-5 0 -6 4 -2 9 6 11 45 10 45 -1z m358 -2 c-27 -20 -22 -36 12 -36 17 0 30 5
30 11 0 8 4 8 14 0 10 -8 16 -9 21 -1 8 12 25 4 25 -13 0 -7 -15 -13 -32 -14
-84 -6 -103 -9 -110 -18 -8 -11 -71 -13 -79 -2 -3 5 -18 5 -33 1 -25 -6 -26
-7 -8 -23 18 -16 19 -41 1 -41 -4 0 -6 7 -2 16 6 15 4 15 -19 0 -24 -15 -26
-15 -32 0 -5 14 -9 13 -26 -7 -11 -13 -19 -18 -20 -11 0 6 4 12 10 12 5 0 7 7
4 15 -4 9 -1 15 8 15 7 0 19 9 26 21 7 12 16 18 19 15 4 -3 21 5 39 19 24 18
45 25 79 25 31 0 47 5 51 15 4 8 14 15 23 15 14 -1 14 -2 -1 -14z m-215 -17
c4 -14 10 -18 19 -14 7 4 -4 -9 -25 -29 -27 -25 -45 -35 -57 -31 -12 4 -22 -1
-29 -12 -6 -10 -11 -13 -11 -7 0 6 7 17 15 24 9 7 13 15 11 18 -3 2 4 12 16
22 15 12 18 19 9 24 -6 4 -10 3 -9 -2 2 -6 0 -10 -4 -11 -5 -1 -8 1 -8 4 0 3
0 11 0 18 0 9 13 14 34 15 26 1 35 -3 39 -19z m742 11 c3 -5 -1 -10 -9 -10 -9
0 -16 5 -16 10 0 6 4 10 9 10 6 0 13 -4 16 -10z m-315 -10 c-36 -11 -52 -11
-45 0 3 6 21 10 38 9 31 -1 31 -1 7 -9z m-643 -22 c-3 -8 -6 -5 -6 6 -1 11 2
17 5 13 3 -3 4 -12 1 -19z m563 -4 c0 -8 -4 -12 -10 -9 -5 3 -10 13 -10 21 0
8 5 12 10 9 6 -3 10 -13 10 -21z m-645 6 c3 -5 -1 -10 -9 -10 -9 0 -16 5 -16
10 0 6 4 10 9 10 6 0 13 -4 16 -10z m-475 -11 c0 6 7 11 15 11 8 0 15 -7 15
-16 0 -8 -4 -13 -9 -9 -5 3 -13 1 -16 -5 -8 -12 -35 5 -35 22 0 6 7 5 15 -2
10 -9 15 -9 15 -1z m100 1 c0 -5 -4 -10 -10 -10 -5 0 -10 5 -10 10 0 6 5 10
10 10 6 0 10 -4 10 -10z m1100 -10 c0 -5 -4 -10 -9 -10 -5 0 -8 -8 -7 -17 1
-11 -9 -19 -31 -24 -28 -5 -35 -3 -49 20 -14 21 -14 23 -2 13 12 -10 18 -9 28
3 10 12 16 13 26 4 11 -9 15 -7 20 5 7 18 24 22 24 6z m870 1 l25 -1 -25 -24
c-14 -13 -29 -21 -35 -17 -10 5 -14 6 -44 9 -11 2 -11 6 3 21 10 10 25 18 34
16 9 -2 28 -4 42 -4z m-1540 -10 c0 -13 -28 -22 -35 -11 -3 4 1 11 7 13 20 8
28 8 28 -2z m-430 -19 c0 -12 -40 -33 -50 -27 -6 4 -13 -1 -16 -10 -5 -12 -10
-13 -20 -5 -18 16 -6 42 16 35 10 -3 21 -2 23 2 7 11 47 14 47 5z m-190 -12
c0 -5 -4 -10 -10 -10 -5 0 -10 5 -10 10 0 6 5 10 10 10 6 0 10 -4 10 -10z
m390 0 c0 -5 -4 -10 -10 -10 -5 0 -10 5 -10 10 0 6 5 10 10 10 6 0 10 -4 10
-10z m590 -10 c0 -5 -7 -10 -16 -10 -8 0 -12 5 -9 10 3 6 10 10 16 10 5 0 9
-4 9 -10z m1110 -24 c0 -7 -16 -27 -35 -46 -36 -35 -44 -30 -23 15 8 18 18 25
30 22 10 -3 18 -1 18 4 0 5 -8 9 -17 10 -11 0 -13 3 -5 6 6 2 9 10 5 16 -4 7
1 6 10 -2 9 -7 17 -19 17 -25z m-1770 -6 c0 -10 4 -22 10 -25 5 -3 -4 -20 -21
-36 -17 -17 -33 -28 -35 -26 -3 3 1 11 9 18 21 21 28 59 11 59 -12 0 -12 4 -2
19 14 23 28 18 28 -9z m32 5 c-2 -14 -8 -25 -13 -25 -7 0 -7 24 0 48 1 1 5 2
10 2 4 0 6 -11 3 -25z m803 15 c4 -6 -6 -10 -22 -9 -25 0 -26 1 -8 9 11 5 21
9 22 9 1 1 5 -3 8 -9z m-1075 -10 c0 -5 -2 -10 -4 -10 -3 0 -8 5 -11 10 -3 6
-1 10 4 10 6 0 11 -4 11 -10z m1940 6 c0 -25 -59 -148 -82 -172 -16 -18 -25
-33 -19 -35 15 -5 -8 -76 -27 -84 -18 -7 -92 13 -92 24 0 5 10 16 23 25 12 9
17 14 10 11 -27 -12 -21 18 17 89 58 111 76 133 112 134 16 0 33 3 36 6 6 7
22 8 22 2z m-1764 -24 c9 -14 8 -18 -5 -19 -10 -1 -17 6 -18 18 -2 24 9 24 23
1z m739 0 c-3 -3 -11 0 -18 7 -9 10 -8 11 6 5 10 -3 15 -9 12 -12z m42 2 c-3
-3 -12 -4 -19 -1 -8 3 -5 6 6 6 11 1 17 -2 13 -5z m1260 -136 c-2 -24 -4 -5
-4 42 0 47 2 66 4 43 2 -24 2 -62 0 -85z m-2144 72 c9 -12 9 -13 -3 -3 -11 10
-16 9 -26 -5 -7 -9 -16 -13 -20 -9 -5 4 -4 11 2 15 6 4 14 16 18 27 7 16 9 17
14 5 2 -8 9 -22 15 -30z m47 31 c6 -2 -23 -21 -31 -21 -3 0 -6 6 -6 14 0 7 7
12 16 11 9 -2 18 -4 21 -4z m80 -11 c-8 -5 -18 -6 -24 -3 -5 4 -1 10 10 13 24
9 34 2 14 -10z m-205 -20 c17 -7 16 -9 -10 -9 -16 0 -37 4 -45 9 -12 8 -10 10
10 9 14 0 34 -4 45 -9z m275 0 c0 -5 -4 -10 -10 -10 -5 0 -10 5 -10 10 0 6 5
10 10 10 6 0 10 -4 10 -10z m1895 0 c-3 -5 -12 -10 -18 -10 -7 0 -6 4 3 10 19
12 23 12 15 0z m449 -136 c-9 -50 -56 -126 -69 -112 -8 8 29 114 44 125 24 19
30 16 25 -13z m-704 7 c0 -9 -41 -23 -48 -16 -2 2 -1 8 3 14 8 13 45 15 45 2z
m526 -28 c-7 -7 -26 7 -26 19 0 6 6 6 15 -2 9 -7 13 -15 11 -17z m-2463 -50
c-7 -2 -19 -2 -25 0 -7 3 -2 5 12 5 14 0 19 -2 13 -5z m87 -17 c0 -3 -4 -8
-10 -11 -5 -3 -10 -1 -10 4 0 6 5 11 10 11 6 0 10 -2 10 -4z m2430 -37 c-10
-34 -20 -50 -20 -31 0 14 18 62 24 62 3 0 1 -14 -4 -31z m-2231 17 c-12 -10
-59 -15 -59 -6 0 5 14 10 32 10 17 0 29 -2 27 -4z m2400 -12 c16 -3 21 -8 14
-15 -13 -13 -93 0 -93 16 0 12 17 12 79 -1z m-2369 -32 c0 -4 -10 -9 -22 -9
-18 -2 -20 0 -8 7 18 12 30 13 30 2z m2565 -132 c3 -5 1 -10 -4 -10 -6 0 -11
5 -11 10 0 6 2 10 4 10 3 0 8 -4 11 -10z m-511 -62 c4 -24 3 -38 -4 -38 -5 0
-10 19 -10 42 0 49 5 47 14 -4z m466 -2 c-6 -20 -15 -36 -20 -36 -5 0 -1 18 7
40 20 49 30 45 13 -4z m-37 4 c3 -11 1 -18 -4 -14 -5 3 -9 12 -9 20 0 20 7 17
13 -6z m-267 -29 c23 19 16 2 -8 -21 -12 -11 -29 -20 -37 -20 -13 1 -13 2 2
11 9 5 17 18 18 27 0 11 2 12 6 4 4 -10 8 -10 19 -1z m-46 -10 c0 -15 -51 -51
-71 -51 -27 0 -23 15 9 39 28 21 62 28 62 12z m-206 -65 c-10 -8 -21 -12 -23
-10 -3 2 4 11 15 18 10 8 21 12 23 10 3 -2 -4 -11 -15 -18z m159 -31 c-34 -30
-43 -31 -43 -6 0 25 63 67 68 46 2 -8 -9 -26 -25 -40z m109 27 c-17 -15 -32
-36 -34 -46 -2 -11 -9 -21 -17 -24 -8 -3 -11 0 -7 7 13 21 -10 11 -34 -14 -13
-14 -20 -25 -15 -25 5 0 -4 -13 -20 -30 -16 -16 -32 -30 -36 -30 -7 0 -19 28
-25 55 -1 6 -3 17 -5 25 -3 10 4 15 21 15 14 0 38 10 54 23 16 12 34 22 41 22
7 0 15 7 19 15 6 17 34 30 68 32 18 2 17 -1 -10 -25z m-282 -247 c-7 -9 -15
-13 -19 -10 -3 3 1 10 9 15 21 14 24 12 10 -5z m-1773 -72 l132 -47 6 -55 c15
-151 19 -141 -41 -116 -19 8 -47 24 -61 35 -14 11 -35 20 -47 20 -34 0 -105
31 -110 49 -3 9 -8 39 -11 66 -3 28 -8 60 -11 73 -2 12 -1 22 3 22 5 0 67 -21
140 -47z m1283 -58 c0 -2 -22 -16 -50 -30 -27 -14 -50 -21 -50 -16 0 4 21 18
48 29 53 24 52 24 52 17z m-493 -151 c-3 -3 -12 -4 -19 -1 -8 3 -5 6 6 6 11 1
17 -2 13 -5z m40 -10 c-3 -3 -12 -4 -19 -1 -8 3 -5 6 6 6 11 1 17 -2 13 -5z
m70 -10 c-3 -3 -12 -4 -19 -1 -8 3 -5 6 6 6 11 1 17 -2 13 -5z m1403 -9 c0
-12 3 -13 19 -3 16 10 25 8 55 -12 19 -14 34 -25 33 -26 -9 -6 -76 -11 -73 -6
3 4 -9 14 -25 21 -27 12 -41 41 -19 41 6 0 10 -7 10 -15z m-587 -31 c-8 -22
-42 -18 -36 5 3 12 11 17 23 14 11 -3 16 -11 13 -19z m-103 -33 c-20 -30 -40
-44 -23 -18 27 42 38 56 41 52 2 -2 -6 -18 -18 -34z m270 33 c0 -8 -19 -13
-24 -6 -3 5 1 9 9 9 8 0 15 -2 15 -3z m35 -14 c-3 -5 -12 -10 -18 -10 -7 0 -6
4 3 10 19 12 23 12 15 0z m329 -5 c6 -16 -3 -19 -29 -9 -13 5 -14 8 -3 15 19
12 25 11 32 -6z m-264 -29 c0 -3 -4 -8 -10 -11 -5 -3 -10 -1 -10 4 0 6 5 11
10 11 6 0 10 -2 10 -4z m283 -11 c4 -8 2 -17 -3 -20 -6 -4 -10 3 -10 14 0 25
6 27 13 6z m40 -2 c4 -3 3 -11 -2 -17 -5 -6 -11 -15 -12 -21 -2 -5 -9 -9 -16
-7 -7 2 -13 -1 -12 -5 5 -27 -3 -42 -21 -40 -11 1 -20 5 -20 10 0 5 6 7 13 4
8 -3 14 3 14 15 1 11 11 28 22 37 11 10 18 21 14 25 -3 3 -2 6 4 6 5 0 13 -3
16 -7z m-341 -9 c26 -5 35 -10 31 -20 -3 -9 6 -18 28 -26 19 -7 37 -11 41 -10
4 1 5 -5 2 -13 -8 -21 14 -45 40 -45 12 0 26 -4 31 -8 6 -5 36 -15 67 -22 58
-13 64 -24 24 -40 -29 -12 4 -13 36 -1 25 9 68 -2 68 -18 0 -5 -9 -13 -20 -16
-30 -10 -24 -22 20 -41 70 -31 34 -34 -100 -9 -14 3 -35 6 -47 8 -13 2 -26 7
-30 11 -5 5 5 6 21 4 15 -3 40 1 55 8 18 10 21 14 9 14 -10 0 -18 5 -18 10 0
16 -22 12 -35 -6 -15 -21 -51 -11 -58 16 -3 12 -13 18 -26 17 -16 -1 -20 -6
-15 -20 4 -14 2 -18 -7 -15 -8 3 -14 14 -13 24 0 14 -7 19 -28 20 -15 1 -25
-2 -23 -7 3 -4 0 -11 -6 -15 -9 -5 -10 -1 -7 14 7 26 -9 41 -39 36 -27 -5 -29
4 -6 22 20 14 12 31 -9 18 -15 -9 -51 -14 -42 -5 3 3 -10 11 -28 17 -24 8 -32
16 -30 30 4 21 22 35 34 28 4 -3 8 -1 8 5 0 5 -5 13 -10 16 -6 4 -8 11 -5 16
7 10 34 11 87 3z m342 -62 c7 -12 -6 -27 -34 -42 l-25 -12 23 21 c12 12 20 26
17 32 -4 5 -2 9 4 9 5 0 12 -4 15 -8z m-108 -32 c5 5 15 2 23 -7 12 -13 11
-14 -9 -8 -17 5 -21 4 -14 -6 4 -7 -7 -3 -24 10 -37 26 -44 41 -8 18 13 -9 27
-12 32 -7z m-2466 -14 c0 -21 -25 -37 -45 -30 -16 6 -15 9 6 25 29 22 39 24
39 5z m-240 -67 c0 -5 8 -9 18 -8 50 5 56 -1 19 -21 -36 -20 -65 -28 -39 -11
11 7 11 11 -2 24 -18 18 -20 27 -6 27 6 0 10 -5 10 -11z m2855 1 c3 -5 1 -10
-4 -10 -6 0 -11 5 -11 10 0 6 2 10 4 10 3 0 8 -4 11 -10z m-2755 -4 c0 -3 -4
-8 -10 -11 -5 -3 -10 -1 -10 4 0 6 5 11 10 11 6 0 10 -2 10 -4z m2290 -36 c0
-5 -5 -10 -11 -10 -5 0 -7 5 -4 10 3 6 8 10 11 10 2 0 4 -4 4 -10z m87 -22
c-3 -8 -6 -5 -6 6 -1 11 2 17 5 13 3 -3 4 -12 1 -19z m73 2 c0 -5 -5 -10 -11
-10 -5 0 -7 5 -4 10 3 6 8 10 11 10 2 0 4 -4 4 -10z m-2525 -53 c-23 -13 -36
-15 -50 -8 -10 5 27 18 55 20 10 0 9 -3 -5 -12z m2739 -12 c-4 -8 -8 -15 -10
-15 -2 0 -4 7 -4 15 0 8 4 15 10 15 5 0 7 -7 4 -15z m-2667 -26 c2 -27 -8 -35
-39 -30 -4 0 -20 -4 -35 -11 -47 -19 -54 -18 -43 3 8 14 7 17 -4 13 -8 -3 -17
-1 -21 5 -5 10 14 16 38 12 4 0 15 7 25 17 9 9 31 18 47 19 27 2 30 -2 32 -28z
m2514 1 c5 0 9 -4 9 -10 0 -5 -6 -10 -14 -10 -21 0 -40 -27 -24 -33 16 -5 10
-12 -22 -22 -23 -7 -24 -6 -10 10 12 15 12 18 -3 26 -25 14 -21 29 9 29 17 0
23 4 18 12 -5 8 -2 9 10 5 10 -4 22 -7 27 -7z m-101 -26 c0 -19 -15 -18 -31 4
-13 16 -13 16 5 2 18 -14 19 -13 13 3 -4 11 -3 16 3 12 6 -3 10 -13 10 -21z
m-525 -12 c-3 -3 -11 0 -18 7 -9 10 -8 11 6 5 10 -3 15 -9 12 -12z m490 -42
c3 -5 1 -10 -4 -10 -6 0 -11 5 -11 10 0 6 2 10 4 10 3 0 8 -4 11 -10z m60 -10
c3 -5 -1 -10 -10 -10 -9 0 -13 5 -10 10 3 6 8 10 10 10 2 0 7 -4 10 -10z
m-545 -10 c0 -5 -10 -10 -22 -9 -22 0 -22 1 -3 9 11 5 21 9 23 9 1 1 2 -3 2
-9z"/>
<path d="M280 2930 c-23 -7 -23 -8 -3 -9 12 -1 25 4 28 9 3 6 5 10 3 9 -2 -1
-14 -5 -28 -9z"/>
<path d="M2618 2863 c7 -3 16 -2 19 1 4 3 -2 6 -13 5 -11 0 -14 -3 -6 -6z"/>
<path d="M2515 2730 c-3 -5 -1 -10 4 -10 6 0 11 5 11 10 0 6 -2 10 -4 10 -3 0
-8 -4 -11 -10z"/>
<path d="M2572 2659 c0 -16 4 -27 9 -24 11 8 12 42 1 49 -5 3 -9 -8 -10 -25z"/>
<path d="M2543 2656 c-10 -11 -9 -15 1 -19 8 -3 16 3 19 14 6 22 -3 24 -20 5z"/>
<path d="M1328 2733 c6 -2 10 -9 7 -14 -4 -5 1 -6 9 -3 24 9 19 24 -6 23 -13
0 -17 -3 -10 -6z"/>
<path d="M432 2723 c4 -22 38 -30 38 -10 0 8 -7 18 -16 21 -23 9 -26 8 -22
-11z"/>
<path d="M200 2590 c20 -13 33 -13 25 0 -3 6 -14 10 -23 10 -15 0 -15 -2 -2
-10z"/>
<path d="M490 2509 c0 -11 4 -18 10 -14 5 3 7 12 3 20 -7 21 -13 19 -13 -6z"/>
<path d="M532 2481 c18 -45 22 -49 39 -38 26 16 24 27 -6 27 -14 0 -25 5 -25
11 0 5 4 8 8 5 4 -2 14 -1 21 3 9 6 5 10 -13 15 -14 3 -26 11 -26 16 0 6 -4
10 -9 10 -6 0 -1 -22 11 -49z"/>
<path d="M1140 2490 c0 -5 5 -10 11 -10 5 0 7 5 4 10 -3 6 -8 10 -11 10 -2 0
-4 -4 -4 -10z"/>
<path d="M356 2065 c-3 -8 -1 -15 4 -15 6 0 10 7 10 15 0 8 -2 15 -4 15 -2 0
-6 -7 -10 -15z"/>
<path d="M531 2071 c-1 -8 -9 -20 -18 -27 -17 -13 -17 -13 0 -14 19 0 32 22
24 42 -4 10 -6 10 -6 -1z"/>
<path d="M316 2005 c-5 -15 26 -39 38 -28 11 11 7 22 -13 32 -14 8 -20 7 -25
-4z"/>
<path d="M366 1985 c-3 -8 -1 -15 4 -15 13 0 22 18 11 24 -5 3 -11 -1 -15 -9z"/>
<path d="M270 1869 c0 -16 4 -28 9 -25 8 5 3 56 -5 56 -2 0 -4 -14 -4 -31z"/>
<path d="M470 1887 c0 -8 7 -14 15 -14 8 0 15 6 15 14 0 7 -7 13 -15 13 -8 0
-15 -6 -15 -13z"/>
<path d="M470 1830 c0 -5 5 -10 11 -10 5 0 7 5 4 10 -3 6 -8 10 -11 10 -2 0
-4 -4 -4 -10z"/>
<path d="M425 1740 c3 -5 10 -10 16 -10 5 0 9 5 9 10 0 6 -7 10 -16 10 -8 0
-12 -4 -9 -10z"/>
<path d="M983 1855 c-17 -14 -16 -14 8 -15 14 0 30 -5 36 -11 6 -6 16 -8 22
-4 8 4 7 10 -1 19 -22 21 -45 25 -65 11z"/>
<path d="M900 1800 c0 -5 7 -10 16 -10 8 0 12 5 9 10 -3 6 -10 10 -16 10 -5 0
-9 -4 -9 -10z"/>
<path d="M486 719 c-23 -27 -17 -32 12 -9 12 10 19 21 14 24 -5 3 -16 -4 -26
-15z"/>
<path d="M538 695 c2 -14 6 -25 8 -25 2 0 4 11 4 25 0 14 -4 25 -9 25 -4 0 -6
-11 -3 -25z"/>
<path d="M570 700 c0 -5 5 -10 11 -10 5 0 7 5 4 10 -3 6 -8 10 -11 10 -2 0 -4
-4 -4 -10z"/>
<path d="M600 690 c0 -5 5 -10 11 -10 5 0 7 5 4 10 -3 6 -8 10 -11 10 -2 0 -4
-4 -4 -10z"/>
<path d="M496 665 c23 -17 34 -19 34 -4 0 5 -4 8 -9 4 -5 -3 -12 -1 -16 5 -3
5 -11 10 -18 10 -6 0 -2 -7 9 -15z"/>
<path d="M631 653 c-1 -26 -4 -31 -18 -26 -10 4 -14 2 -9 -5 3 -6 15 -10 26
-9 10 1 16 5 14 9 -3 4 0 8 5 8 6 0 11 12 11 28 0 19 -3 23 -9 13 -7 -11 -9
-11 -14 0 -3 8 -6 0 -6 -18z"/>
<path d="M582 650 c0 -14 2 -19 5 -12 2 6 2 18 0 25 -3 6 -5 1 -5 -13z"/>
<path d="M670 661 c0 -5 7 -11 15 -15 8 -3 15 -1 15 3 0 5 -7 11 -15 15 -8 3
-15 1 -15 -3z"/>
<path d="M666 628 c-8 -19 19 -56 32 -44 3 4 1 10 -5 14 -6 4 -13 16 -15 27
-4 18 -6 18 -12 3z"/>
<path d="M2686 302 c6 -4 13 -15 17 -24 3 -9 16 -22 29 -28 19 -9 21 -9 7 2
-9 7 -21 23 -28 36 -6 12 -17 22 -24 22 -8 0 -9 -3 -1 -8z"/>
<path d="M2725 290 c3 -5 16 -10 28 -9 21 0 21 1 2 9 -28 12 -37 12 -30 0z"/>
<path d="M125 2990 c3 -5 10 -10 16 -10 5 0 9 5 9 10 0 6 -7 10 -16 10 -8 0
-12 -4 -9 -10z"/>
<path d="M605 2990 c3 -5 10 -10 16 -10 5 0 9 5 9 10 0 6 -7 10 -16 10 -8 0
-12 -4 -9 -10z"/>
<path d="M1396 2988 c7 -11 34 -10 34 1 0 6 -9 9 -19 8 -11 0 -17 -5 -15 -9z"/>
<path d="M1670 2989 c0 -5 5 -7 10 -4 6 3 10 8 10 11 0 2 -4 4 -10 4 -5 0 -10
-5 -10 -11z"/>
<path d="M2950 2991 c0 -5 9 -7 20 -4 11 3 20 7 20 9 0 2 -9 4 -20 4 -11 0
-20 -4 -20 -9z"/>
<path d="M1370 2975 c7 -8 17 -15 22 -15 6 0 5 7 -2 15 -7 8 -17 15 -22 15 -6
0 -5 -7 2 -15z"/>
<path d="M1402 2948 c-7 -7 -12 -15 -12 -20 0 -12 28 2 34 18 7 17 -6 18 -22
2z"/>
<path d="M2855 2910 c-3 -5 1 -10 10 -10 9 0 13 5 10 10 -3 6 -8 10 -10 10 -2
0 -7 -4 -10 -10z"/>
<path d="M2855 2870 c3 -5 10 -10 16 -10 5 0 9 5 9 10 0 6 -7 10 -16 10 -8 0
-12 -4 -9 -10z"/>
<path d="M2832 2784 c10 -10 20 -16 22 -13 3 3 -5 11 -17 18 -21 13 -21 12 -5
-5z"/>
<path d="M2840 2739 c0 -5 5 -7 10 -4 6 3 10 8 10 11 0 2 -4 4 -10 4 -5 0 -10
-5 -10 -11z"/>
<path d="M2920 2736 c0 -3 9 -10 20 -16 11 -6 20 -8 20 -6 0 3 -9 10 -20 16
-11 6 -20 8 -20 6z"/>
<path d="M2862 2686 c8 -9 17 -11 24 -5 8 6 14 4 17 -6 4 -8 13 -12 22 -9 14
6 14 8 -2 18 -10 7 -31 13 -46 14 -23 2 -26 0 -15 -12z"/>
<path d="M2840 2671 c0 -6 -7 -8 -15 -5 -8 4 -15 2 -15 -4 0 -5 8 -12 18 -15
9 -4 35 -13 57 -21 36 -13 38 -13 20 0 -11 9 -19 20 -17 25 1 6 -2 8 -7 5 -5
-4 -17 1 -25 10 -9 8 -16 11 -16 5z"/>
<path d="M8 2653 c7 -3 16 -2 19 1 4 3 -2 6 -13 5 -11 0 -14 -3 -6 -6z"/>
<path d="M2936 2619 c4 -6 1 -14 -5 -18 -8 -5 -5 -14 9 -31 21 -24 42 -21 21
3 -6 8 -9 21 -6 29 4 9 -1 18 -10 22 -10 4 -14 2 -9 -5z"/>
<path d="M2857 2574 c-7 -7 21 -33 36 -34 4 0 7 6 7 14 0 8 6 17 13 19 6 3 2
6 -10 6 -13 1 -23 -5 -23 -11 0 -10 -2 -10 -8 0 -5 7 -11 9 -15 6z"/>
<path d="M2916 2521 c-3 -5 1 -11 9 -15 9 -3 15 0 15 9 0 16 -16 20 -24 6z"/>
<path d="M2967 2446 c-4 -10 -1 -13 8 -9 8 3 12 9 9 14 -7 12 -11 11 -17 -5z"/>
<path d="M2550 2440 c-11 -7 -6 -10 20 -10 26 0 31 3 20 10 -8 5 -17 10 -20
10 -3 0 -12 -5 -20 -10z"/>
<path d="M1386 2425 c-4 -11 1 -15 21 -15 14 0 24 1 22 3 -2 1 -11 8 -20 15
-14 10 -18 10 -23 -3z"/>
<path d="M2583 2413 c9 -2 25 -2 35 0 9 3 1 5 -18 5 -19 0 -27 -2 -17 -5z"/>
<path d="M1756 2346 c23 -7 46 -16 53 -20 6 -4 11 -4 11 -1 0 9 -66 35 -87 34
-10 0 0 -6 23 -13z"/>
<path d="M1855 2303 c6 -5 30 -25 55 -43 33 -25 39 -27 23 -9 -12 13 -37 33
-55 43 -18 10 -28 15 -23 9z"/>
<path d="M2901 2084 c0 -11 3 -14 6 -6 3 7 2 16 -1 19 -3 4 -6 -2 -5 -13z"/>
<path d="M2960 2053 c-14 -9 -38 -25 -53 -35 -16 -11 -37 -18 -48 -15 -10 3
-19 2 -19 -3 0 -4 -10 -5 -23 -3 -14 3 -29 -2 -38 -13 -12 -16 -12 -17 4 -11
9 3 24 4 32 0 14 -5 14 -8 -1 -24 -17 -18 -14 -19 84 -19 l102 0 0 70 c0 39
-3 70 -7 69 -5 0 -19 -7 -33 -16z m0 -48 c-7 -8 -17 -15 -22 -15 -6 0 -5 7 2
15 7 8 17 15 22 15 6 0 5 -7 -2 -15z m-53 -51 c-3 -3 -12 -4 -19 -1 -8 3 -5 6
6 6 11 1 17 -2 13 -5z"/>
<path d="M1585 1920 c-3 -5 -1 -10 4 -10 6 0 11 5 11 10 0 6 -2 10 -4 10 -3 0
-8 -4 -11 -10z"/>
<path d="M1916 1911 c-3 -4 6 -6 19 -3 14 2 25 6 25 8 0 8 -39 4 -44 -5z"/>
<path d="M1858 1893 c6 -2 18 -2 25 0 6 3 1 5 -13 5 -14 0 -19 -2 -12 -5z"/>
<path d="M2655 1860 c3 -5 8 -10 11 -10 2 0 4 5 4 10 0 6 -5 10 -11 10 -5 0
-7 -4 -4 -10z"/>
<path d="M2670 1810 c24 -30 57 -70 74 -88 32 -35 95 -84 83 -65 -4 6 2 18 13
28 24 22 26 35 4 35 -10 0 -14 6 -10 15 3 8 2 14 -2 12 -4 -1 -8 3 -9 8 -2 6
2 10 7 10 6 0 10 5 10 10 1 6 -19 13 -42 16 -24 3 -51 9 -60 14 -25 10 -23 0
10 -48 32 -47 53 -86 25 -47 -10 14 -46 54 -82 90 l-64 65 43 -55z"/>
<path d="M2785 1820 c3 -5 8 -10 11 -10 2 0 4 5 4 10 0 6 -5 10 -11 10 -5 0
-7 -4 -4 -10z"/>
<path d="M2835 1799 c45 -35 55 -52 43 -67 -8 -9 -7 -11 6 -6 9 3 16 12 16 20
0 20 -42 61 -70 69 -24 7 -24 6 5 -16z"/>
<path d="M2895 1781 c31 -30 110 -52 102 -28 -2 7 -18 13 -35 15 -18 2 -32 8
-32 14 0 7 13 8 35 5 19 -3 35 -2 35 2 0 8 -71 21 -114 21 -19 0 -18 -2 9 -29z"/>
<path d="M1420 1760 c0 -5 7 -7 15 -4 8 4 15 8 15 10 0 2 -7 4 -15 4 -8 0 -15
-4 -15 -10z"/>
<path d="M1188 1644 c-38 -20 -36 -28 2 -9 17 9 30 18 30 20 0 7 -1 6 -32 -11z"/>
<path d="M2826 1623 c3 -10 10 -27 14 -38 5 -11 11 -27 13 -35 3 -8 6 6 6 31
1 34 -3 49 -15 53 -23 9 -24 8 -18 -11z"/>
<path d="M1113 1563 c9 -2 23 -2 30 0 6 3 -1 5 -18 5 -16 0 -22 -2 -12 -5z"/>
<path d="M1175 1559 c-17 -6 -16 -8 7 -8 15 -1 29 3 32 7 6 11 -14 11 -39 1z"/>
<path d="M1248 1543 c12 -2 30 -2 40 0 9 3 -1 5 -23 4 -22 0 -30 -2 -17 -4z"/>
<path d="M2245 1539 c-4 -6 -5 -12 -2 -15 2 -3 7 2 10 11 7 17 1 20 -8 4z"/>
<path d="M2818 1510 c-6 -37 0 -44 19 -25 8 9 12 23 8 35 -9 29 -22 24 -27
-10z"/>
<path d="M365 1360 c3 -5 2 -10 -3 -10 -6 0 -13 -7 -16 -16 -3 -8 -2 -13 3
-10 4 3 21 11 37 17 27 10 27 12 9 19 -28 12 -37 12 -30 0z"/>
<path d="M2123 1349 c-13 -5 -23 -13 -23 -19 0 -13 13 -13 28 2 6 6 14 9 17 6
3 -3 -46 -40 -110 -82 -155 -104 -157 -116 -2 -16 83 54 130 78 141 74 16 -6
16 -8 0 -25 -24 -27 -12 -24 45 11 73 45 71 56 -8 57 -36 0 -76 -3 -88 -8z"/>
<path d="M308 1313 c7 -3 16 -2 19 1 4 3 -2 6 -13 5 -11 0 -14 -3 -6 -6z"/>
<path d="M74 1115 c-9 -41 -9 -45 8 -45 19 0 24 37 10 73 -6 13 -10 5 -18 -28z"/>
<path d="M330 1045 l-11 -55 -37 16 c-20 9 -53 21 -72 26 -19 6 -47 16 -62 24
-17 9 -29 10 -33 4 -4 -6 11 -17 32 -25 21 -8 55 -24 75 -35 20 -11 45 -20 55
-20 9 0 26 -11 38 -24 38 -45 713 -254 730 -226 4 7 138 -32 167 -50 10 -5 37
-10 60 -11 24 0 77 -6 118 -14 41 -7 79 -9 84 -5 12 12 3 137 -11 151 -13 13
-105 40 -257 74 -126 29 -143 30 -66 5 41 -14 48 -18 28 -19 -31 -1 -83 -19
-76 -27 3 -2 17 0 30 5 17 6 29 6 36 -1 7 -7 16 -6 30 1 16 8 21 7 26 -5 10
-25 7 -64 -5 -64 -7 0 -8 12 -5 33 5 27 4 28 -4 10 -5 -13 -14 -23 -20 -23 -6
0 -9 -4 -6 -9 3 -5 -6 -12 -22 -15 -15 -4 -35 -9 -46 -13 -12 -3 -16 -1 -12 6
4 6 0 11 -8 11 -9 0 -16 1 -17 3 -7 29 -8 87 0 87 25 0 -50 58 -89 68 -25 7
-108 28 -185 48 -77 19 -206 55 -287 80 -80 24 -151 44 -156 44 -6 0 -16 -25
-22 -55z m265 -92 c11 -3 27 -7 35 -10 8 -3 24 -8 34 -10 26 -5 34 -15 17 -21
-11 -4 -11 -6 0 -13 7 -4 11 -11 7 -14 -7 -7 -143 37 -146 48 -7 25 -1 39 16
32 9 -4 26 -9 37 -12z m665 -107 c0 -3 -4 -8 -10 -11 -5 -3 -10 -1 -10 4 0 6
5 11 10 11 6 0 10 -2 10 -4z m125 -36 c4 -6 -7 -10 -25 -10 -17 0 -40 -5 -52
-11 -11 -6 -23 -7 -26 -3 -4 4 -1 9 6 11 6 3 10 9 6 14 -3 5 15 9 40 9 25 0
48 -4 51 -10z m66 -34 c0 -6 2 -23 4 -38 2 -15 -1 -30 -6 -34 -17 -10 -20 1
-10 29 6 15 6 29 2 32 -5 2 -12 -7 -15 -20 -6 -24 -10 -25 -44 -19 -20 4 -50
8 -67 8 -38 1 -50 36 -13 36 13 0 29 -5 36 -12 9 -9 12 -9 12 1 0 7 4 10 9 7
4 -3 16 0 25 7 21 16 66 18 67 3z m-304 -32 c-3 -3 -12 -4 -19 -1 -8 3 -5 6 6
6 11 1 17 -2 13 -5z m220 -60 c-3 -3 -12 -4 -19 -1 -8 3 -5 6 6 6 11 1 17 -2
13 -5z"/>
<path d="M1699 1023 c-13 -16 -12 -17 4 -4 16 13 21 21 13 21 -2 0 -10 -8 -17
-17z"/>
<path d="M2820 959 c0 -22 15 -39 32 -39 17 0 18 3 8 15 -15 18 -10 18 24 5
16 -6 27 -6 31 0 4 6 -1 10 -9 10 -9 0 -16 4 -16 9 0 5 -16 9 -35 8 -19 -1
-35 -4 -35 -8z"/>
<path d="M1988 925 c-6 -14 -8 -28 -5 -31 10 -11 37 17 37 37 0 27 -18 23 -32
-6z"/>
<path d="M2958 943 c7 -3 16 -2 19 1 4 3 -2 6 -13 5 -11 0 -14 -3 -6 -6z"/>
<path d="M1594 847 c-6 -7 -25 -24 -42 -39 -31 -27 -55 -88 -46 -113 5 -13 0
-23 -34 -60 -11 -13 -11 -15 1 -15 46 0 217 69 217 88 0 6 5 12 11 12 6 0 33
14 59 31 46 30 71 70 49 78 -5 1 -15 9 -22 16 -8 9 -21 10 -46 3 -19 -6 -45
-8 -57 -5 -17 3 -24 0 -24 -12 0 -11 -4 -10 -16 7 -17 24 -33 27 -50 9z"/>
<path d="M2897 836 c-4 -9 -12 -14 -18 -11 -16 10 -69 12 -69 3 0 -4 8 -8 18
-9 9 0 26 -2 37 -4 26 -5 49 9 43 26 -3 9 -6 8 -11 -5z"/>
<path d="M2587 808 c-11 -5 -32 -7 -48 -4 -19 3 -28 2 -24 -4 3 -6 -2 -10 -12
-10 -10 -1 -2 -7 17 -14 19 -7 47 -18 61 -24 15 -6 30 -8 33 -5 3 4 6 3 6 0 0
-4 -15 -13 -32 -21 l-33 -14 29 -1 c16 -1 43 -10 60 -20 24 -15 36 -17 56 -9
15 6 20 12 13 15 -27 10 -11 21 25 18 34 -3 35 -2 18 10 -10 8 -23 12 -28 8
-6 -3 -5 4 1 15 16 29 14 37 -6 21 -10 -9 -14 -9 -10 -2 4 7 3 20 -4 30 -13
21 -93 28 -122 11z m88 -96 c-6 -7 -35 18 -35 31 0 5 9 2 20 -8 11 -10 18 -20
15 -23z"/>
<path d="M2841 781 c-17 -11 12 -21 72 -26 31 -2 43 -8 47 -21 5 -18 40 -33
40 -17 -1 15 -39 78 -40 65 0 -7 -5 -10 -11 -6 -17 10 -93 14 -108 5z"/>
<path d="M2870 701 c0 -12 5 -21 10 -21 6 0 10 6 10 14 0 8 -4 18 -10 21 -5 3
-10 -3 -10 -14z"/>
<path d="M2900 695 c0 -8 7 -15 16 -15 14 0 14 3 4 15 -7 8 -14 15 -16 15 -2
0 -4 -7 -4 -15z"/>
<path d="M2480 682 c0 -6 5 -12 12 -14 17 -6 0 -28 -22 -28 -13 0 -17 -5 -13
-21 5 -17 12 -20 35 -17 20 3 33 -1 42 -13 14 -20 43 -9 32 12 -5 9 -3 9 6 -1
7 -8 22 -15 33 -15 11 1 23 -3 26 -8 4 -6 10 0 14 12 3 12 15 21 26 21 10 0
19 4 19 10 0 13 -32 29 -56 29 -10 -1 -30 2 -44 6 -14 4 -38 9 -55 12 -16 3
-36 10 -42 15 -9 7 -13 7 -13 0z"/>
<path d="M2816 669 c3 -5 0 -9 -5 -9 -6 0 -11 -5 -11 -11 0 -6 7 -9 15 -5 8 3
15 1 15 -5 0 -6 8 -5 22 2 21 11 21 12 2 22 -25 15 -46 18 -38 6z"/>
<path d="M2700 630 c0 -13 11 -13 30 0 12 8 11 10 -7 10 -13 0 -23 -4 -23 -10z"/>
<path d="M2705 570 c-3 -6 1 -7 9 -4 18 7 21 14 7 14 -6 0 -13 -4 -16 -10z"/>
<path d="M2575 558 c11 -6 22 -15 25 -19 3 -4 23 -10 45 -13 22 -3 32 -3 23 0
-10 3 -18 10 -18 16 0 5 -6 8 -14 5 -8 -3 -22 1 -33 8 -10 8 -25 14 -33 14
-10 0 -9 -3 5 -11z"/>
</g>
</svg>
